<?xml version="1.0" standalone="no"?>
<!DOCTYPE svg PUBLIC "-//W3C//DTD SVG 20010904//EN"
 "http://www.w3.org/TR/2001/REC-SVG-20010904/DTD/svg10.dtd">
<svg version="1.0" xmlns="http://www.w3.org/2000/svg"
 width="666.000000pt" height="374.000000pt" viewBox="0 0 666.000000 374.000000"
 preserveAspectRatio="xMidYMid meet">

<g transform="translate(0.000000,374.000000) scale(0.100000,-0.100000)"
fill="#4f3920" stroke="none">
<path d="M6 3732 c-4 -3 -6 -133 -6 -288 1 -209 4 -284 13 -288 9 -3 9 -5 0
-5 -15 -1 -18 -391 -3 -391 15 0 12 -47 -3 -53 -9 -4 -9 -6 1 -6 14 -1 17 -31
2 -31 -16 0 -13 -677 3 -684 9 -3 9 -7 -1 -13 -9 -7 -12 -59 -10 -224 l3 -214
93 -3 c89 -3 93 -2 87 17 -9 29 10 34 23 6 13 -29 47 -33 57 -7 6 16 7 16 19
0 11 -15 29 -18 103 -18 56 0 93 4 101 12 9 9 12 9 12 0 0 -9 92 -12 384 -12
301 0 383 3 382 13 0 6 4 12 9 12 6 0 9 -6 9 -12 -2 -16 28 -17 44 -1 9 9 12
9 12 0 0 -8 27 -12 90 -12 l90 0 0 28 c0 40 -27 136 -51 184 -49 95 -155 178
-266 207 -26 7 -164 11 -374 11 -183 -1 -336 3 -341 8 -10 10 -12 443 -1 453
4 4 96 9 203 11 194 4 195 4 260 34 86 41 152 102 194 177 49 90 52 111 18
127 l-27 13 30 6 c25 5 31 11 33 39 l3 32 -93 0 c-68 0 -100 -4 -116 -16 -24
-16 -30 -7 -9 15 6 8 7 11 1 8 -6 -3 -33 5 -60 18 -27 14 -55 25 -61 25 -7 0
-13 4 -13 9 0 5 -10 7 -22 3 -13 -3 -19 -1 -15 6 4 5 -19 37 -51 69 -43 43
-65 76 -85 125 -31 79 -45 172 -28 183 7 4 64 6 128 6 111 -1 116 0 100 16 -8
10 -21 31 -27 48 l-11 29 22 -19 c11 -11 27 -32 35 -48 l15 -27 163 1 163 0
-5 26 c-3 18 -1 24 7 19 6 -4 11 -16 11 -26 0 -17 9 -19 123 -17 l122 2 3 33
c2 18 -3 40 -10 49 -10 13 -10 17 0 21 9 3 12 42 11 161 l-1 157 -235 2 c-197
2 -237 0 -249 -13 -20 -20 -54 -19 -54 1 0 13 -6 15 -27 10 -16 -4 -35 -6 -43
-5 -8 1 -113 3 -233 4 -209 3 -217 2 -212 -16 5 -15 1 -19 -15 -19 -17 0 -20
4 -15 20 8 24 -11 26 -39 5 -23 -18 -36 -19 -36 -4 0 5 5 7 12 3 6 -4 8 -3 4
4 -7 11 -339 16 -350 4z m584 -18 c0 -14 -3 -14 -15 -4 -8 7 -15 14 -15 16 0
2 7 4 15 4 8 0 15 -7 15 -16z m277 -71 c1 -14 -4 -23 -13 -23 -8 0 -14 3 -15
8 0 4 -2 27 -4 51 l-4 44 18 -29 c9 -16 18 -39 18 -51z m64 54 c-13 -13 -26
-3 -16 12 3 6 11 8 17 5 6 -4 6 -10 -1 -17z m-243 -1 c-20 -14 -24 -36 -8 -36
6 0 10 -7 10 -15 0 -12 -9 -9 -35 12 -32 25 -34 29 -18 41 9 6 28 12 42 12 24
-1 25 -2 9 -14z m82 -1 c7 -9 10 -25 6 -41 l-7 -27 -18 34 c-23 45 -10 69 19
34z m275 5 c3 -5 1 -10 -4 -10 -6 0 -11 5 -11 10 0 6 2 10 4 10 3 0 8 -4 11
-10z m95 -32 c0 -10 -12 -10 -29 1 -8 5 -11 16 -7 27 6 16 7 16 21 -2 8 -10
15 -22 15 -26z m295 32 c-3 -5 -11 -10 -16 -10 -6 0 -7 5 -4 10 3 6 11 10 16
10 6 0 7 -4 4 -10z m-860 -10 c3 -5 1 -10 -4 -10 -6 0 -11 5 -11 10 0 6 2 10
4 10 3 0 8 -4 11 -10z m510 -11 c-10 -15 -25 -10 -19 6 4 8 10 12 15 9 5 -3 7
-10 4 -15z m145 1 c0 -5 -7 -7 -15 -4 -8 4 -15 8 -15 10 0 2 7 4 15 4 8 0 15
-4 15 -10z m-740 -15 c0 -8 -2 -15 -4 -15 -2 0 -6 7 -10 15 -3 8 -1 15 4 15 6
0 10 -7 10 -15z m325 -32 c-7 -17 -8 -17 -15 2 -9 24 -2 41 12 27 6 -6 7 -19
3 -29z m-452 2 c-17 -23 -41 -36 -28 -16 3 5 0 13 -6 17 -14 8 8 24 34 24 17
0 17 -1 0 -25z m592 15 c-3 -5 -10 -10 -16 -10 -5 0 -9 5 -9 10 0 6 7 10 16
10 8 0 12 -4 9 -10z m77 -34 c-2 -5 -9 -1 -14 8 -5 9 -6 21 -2 28 9 14 25 -22
16 -36z m-974 -16 c-7 -11 -16 -20 -20 -20 -11 0 -10 9 5 25 18 21 29 18 15
-5z m322 10 c0 -5 -2 -10 -4 -10 -3 0 -8 5 -11 10 -3 6 -1 10 4 10 6 0 11 -4
11 -10z m70 0 c0 -5 -4 -10 -9 -10 -6 0 -13 5 -16 10 -3 6 1 10 9 10 9 0 16
-4 16 -10z m753 4 c9 -9 -4 -35 -14 -28 -5 3 -9 12 -9 20 0 14 12 19 23 8z
m-457 -33 c-14 -9 -26 -21 -26 -27 0 -6 -7 -17 -15 -24 -25 -21 -18 7 11 45
16 22 31 32 41 28 12 -5 10 -9 -11 -22z m-316 9 c0 -5 14 -26 32 -46 18 -20
33 -43 34 -50 3 -17 -12 -28 -21 -15 -3 6 -13 7 -21 4 -14 -5 -15 -3 -5 14 9
18 7 22 -15 27 -19 5 -25 12 -22 29 1 12 -1 28 -5 35 -5 7 -3 12 7 12 9 0 16
-4 16 -10z m104 -11 c15 -18 15 -23 5 -30 -35 -22 -69 0 -55 36 8 21 28 19 50
-6z m106 0 c0 -24 -23 -21 -28 4 -2 10 3 17 12 17 10 0 16 -9 16 -21z m50 17
c0 -3 -4 -8 -10 -11 -5 -3 -10 -1 -10 4 0 6 5 11 10 11 6 0 10 -2 10 -4z m196
-11 c-11 -8 -22 -12 -25 -9 -6 6 19 24 34 24 6 -1 1 -7 -9 -15z m132 -3 c2 -7
-2 -10 -12 -6 -9 3 -16 11 -16 16 0 13 23 5 28 -10z m-198 4 c0 -11 -19 -15
-25 -6 -3 5 1 10 9 10 9 0 16 -2 16 -4z m-660 -26 c0 -5 -2 -10 -4 -10 -3 0
-8 5 -11 10 -3 6 -1 10 4 10 6 0 11 -4 11 -10z m446 -8 c-3 -3 -1 -11 5 -19
16 -18 3 -16 -20 4 -22 18 -19 35 5 26 8 -3 12 -8 10 -11z m274 -23 c0 -5 -7
-6 -15 -3 -8 4 -15 13 -15 21 0 13 3 13 15 3 8 -7 15 -16 15 -21z m-500 11 c0
-5 -2 -10 -4 -10 -3 0 -8 5 -11 10 -3 6 -1 10 4 10 6 0 11 -4 11 -10z m410 -5
c10 -13 9 -15 -8 -15 -22 0 -36 13 -25 24 10 10 20 7 33 -9z m480 -49 c0 -41
-16 -21 -24 29 -6 37 -5 39 9 21 8 -11 15 -33 15 -50z m-336 48 c16 -6 23 -44
9 -44 -17 1 -45 29 -38 39 7 13 8 13 29 5z m385 -36 c1 -5 -6 -8 -15 -8 -11 0
-14 5 -10 16 3 9 6 21 7 27 0 12 17 -20 18 -35z m-969 5 c0 -16 -5 -35 -10
-43 -8 -12 -10 -9 -10 13 0 15 -5 27 -11 27 -8 0 -8 5 1 15 19 23 30 18 30
-12z m700 8 c0 -5 -7 -11 -15 -15 -8 -3 -15 -15 -15 -28 0 -15 -3 -19 -10 -12
-12 12 -3 44 12 44 5 0 6 5 3 10 -3 6 1 10 9 10 9 0 16 -4 16 -9z m-62 -35 c3
-20 0 -27 -10 -24 -7 3 -14 17 -15 32 -3 37 21 29 25 -8z m122 24 c0 -5 -2
-10 -4 -10 -3 0 -8 5 -11 10 -3 6 -1 10 4 10 6 0 11 -4 11 -10z m-590 -15 c0
-8 -2 -15 -4 -15 -2 0 -6 7 -10 15 -3 8 -1 15 4 15 6 0 10 -7 10 -15z m100
-21 c0 -8 -9 -14 -21 -14 -15 0 -19 4 -15 16 3 9 6 20 6 26 0 6 6 6 15 -2 8
-7 15 -19 15 -26z m260 17 c12 -24 13 -31 2 -31 -5 0 -14 11 -20 25 -14 29 2
34 18 6z m-820 0 c0 -6 -4 -13 -10 -16 -5 -3 -10 1 -10 9 0 9 5 16 10 16 6 0
10 -4 10 -9z m669 -5 c7 -8 8 -16 4 -19 -11 -7 -45 18 -36 26 10 11 19 8 32
-7z m-159 -25 c0 -10 -7 -24 -15 -31 -13 -10 -15 -9 -15 12 0 14 3 28 7 31 12
13 23 7 23 -12z m895 9 c3 -6 -1 -13 -10 -16 -19 -8 -30 0 -20 15 8 14 22 14
30 1z m-639 -15 c8 -20 -13 -45 -37 -45 -24 0 -25 35 -1 49 24 14 32 13 38 -4z
m419 5 c3 -5 -3 -10 -14 -10 -12 0 -21 5 -21 10 0 6 6 10 14 10 8 0 18 -4 21
-10z m-1195 -9 c0 -11 -26 -22 -34 -14 -12 12 -5 23 14 23 11 0 20 -4 20 -9z
m1020 -6 c0 -24 -60 -85 -84 -84 -13 1 -15 3 -6 6 8 2 31 24 50 49 39 49 40
50 40 29z m-910 -21 c0 -8 -4 -12 -10 -9 -5 3 -10 13 -10 21 0 8 5 12 10 9 6
-3 10 -13 10 -21z m297 11 c19 -5 21 -10 13 -26 -6 -10 -15 -19 -21 -19 -6 0
-8 4 -5 9 3 5 -1 14 -8 20 -11 10 -15 9 -18 -3 -2 -11 -8 -13 -17 -7 -19 12
-6 44 16 37 10 -2 28 -7 40 -11z m932 -4 c10 -18 6 -31 -10 -31 -3 0 -9 11
-11 25 -6 29 7 33 21 6z m31 9 c0 -5 -4 -10 -10 -10 -5 0 -10 5 -10 10 0 6 5
10 10 10 6 0 10 -4 10 -10z m-735 -21 c-7 -10 -35 -1 -35 11 0 5 9 6 20 3 11
-3 17 -9 15 -14z m240 -9 c22 -24 17 -31 -13 -23 -13 3 -22 13 -22 24 0 25 12
24 35 -1z m75 10 c0 -5 -4 -10 -10 -10 -5 0 -10 5 -10 10 0 6 5 10 10 10 6 0
10 -4 10 -10z m115 0 c3 -5 1 -10 -4 -10 -6 0 -11 5 -11 10 0 6 2 10 4 10 3 0
8 -4 11 -10z m55 -11 c11 -19 10 -20 -9 -9 -12 6 -21 15 -21 20 0 18 19 11 30
-11z m-425 0 c11 -17 -1 -21 -15 -4 -8 9 -8 15 -2 15 6 0 14 -5 17 -11z m535
1 c0 -5 -10 -10 -22 -10 -19 0 -20 2 -8 10 19 13 30 13 30 0z m-1245 -10 c3
-5 1 -10 -4 -10 -6 0 -11 5 -11 10 0 6 2 10 4 10 3 0 8 -4 11 -10z m212 -36
c-10 -10 -37 16 -37 34 0 13 4 12 22 -5 12 -13 19 -25 15 -29z m141 23 c2 -10
-3 -17 -12 -17 -10 0 -16 9 -16 21 0 24 23 21 28 -4z m1100 5 c6 -18 -15 -14
-22 4 -4 10 -1 14 6 12 6 -2 14 -10 16 -16z m-942 -29 c-11 -11 -17 4 -9 23 7
18 8 18 11 1 2 -10 1 -21 -2 -24z m170 0 c-10 -10 -19 5 -10 18 6 11 8 11 12
0 2 -7 1 -15 -2 -18z m439 17 c3 -5 1 -10 -4 -10 -6 0 -11 5 -11 10 0 6 2 10
4 10 3 0 8 -4 11 -10z m-530 -10 c3 -5 2 -10 -4 -10 -5 0 -13 5 -16 10 -3 6
-2 10 4 10 5 0 13 -4 16 -10z m496 -15 c-1 -15 -24 -12 -29 3 -3 9 2 13 12 10
10 -1 17 -7 17 -13z m166 -17 c-3 -8 -6 -5 -6 6 -1 11 2 17 5 13 3 -3 4 -12 1
-19z m-1122 2 c-3 -5 -10 -10 -16 -10 -5 0 -9 5 -9 10 0 6 7 10 16 10 8 0 12
-4 9 -10z m215 -21 c0 -11 -4 -17 -10 -14 -5 3 -10 15 -10 26 0 11 5 17 10 14
6 -3 10 -15 10 -26z m114 22 c8 -12 -20 -22 -39 -15 -19 8 -9 24 15 24 10 0
21 -4 24 -9z m-376 -26 c13 -29 6 -32 -26 -9 -27 18 -29 34 -4 34 11 0 24 -11
30 -25z m212 11 c0 -3 -4 -8 -10 -11 -5 -3 -10 -1 -10 4 0 6 5 11 10 11 6 0
10 -2 10 -4z m10 -73 c0 -7 -3 -13 -6 -13 -11 0 -42 45 -37 53 7 11 43 -22 43
-40z m200 8 c0 -11 -39 -25 -47 -18 -3 3 -2 10 2 16 8 13 45 15 45 2z m42 -43
c-9 -9 -12 -7 -12 12 0 19 3 21 12 12 9 -9 9 -15 0 -24z m-388 13 c4 -5 -3 -7
-14 -4 -23 6 -26 13 -6 13 8 0 17 -4 20 -9z m105 -4 c6 -8 8 -17 4 -20 -7 -8
-33 11 -33 24 0 13 16 11 29 -4z m-239 -33 c0 -8 -4 -14 -10 -14 -12 0 -31 35
-23 44 9 8 33 -14 33 -30z m360 -4 c0 -11 -4 -20 -10 -20 -5 0 -10 9 -10 20 0
11 5 20 10 20 6 0 10 -9 10 -20z m80 16 c0 -2 -7 -7 -16 -10 -8 -3 -12 -2 -9
4 6 10 25 14 25 6z m130 -16 c-8 -5 -17 -7 -19 -4 -3 3 1 9 9 14 8 5 17 7 19
4 3 -3 -1 -9 -9 -14z m-375 -20 c3 -5 -1 -10 -10 -10 -9 0 -13 5 -10 10 3 6 8
10 10 10 2 0 7 -4 10 -10z m41 -37 c-4 -4 -11 -1 -16 7 -16 25 -11 35 7 17 9
-9 13 -20 9 -24z m365 8 c8 -20 6 -22 -13 -15 -17 5 -20 3 -15 -10 9 -24 -10
-19 -24 6 -10 18 -8 24 7 35 23 17 35 13 45 -16z m-521 -23 c0 -6 -6 -5 -15 2
-8 7 -15 14 -15 16 0 2 7 1 15 -2 8 -4 15 -11 15 -16z m384 -4 c5 -13 2 -15
-14 -11 -18 4 -19 3 -9 -9 10 -12 9 -13 -5 -8 -18 7 -18 7 -10 28 8 21 30 21
38 0z m-449 -72 c-12 -12 -35 11 -35 35 l0 28 20 -30 c10 -16 17 -31 15 -33z
m495 48 c0 -5 -5 -10 -11 -10 -5 0 -7 5 -4 10 3 6 8 10 11 10 2 0 4 -4 4 -10z
m45 -11 c10 -30 2 -32 -12 -3 -6 13 -7 24 -3 24 5 0 12 -9 15 -21z m-285 1 c0
-5 -4 -10 -10 -10 -5 0 -10 5 -10 10 0 6 5 10 10 10 6 0 10 -4 10 -10z m-185
-40 c3 -5 1 -10 -4 -10 -6 0 -11 5 -11 10 0 6 2 10 4 10 3 0 8 -4 11 -10z
m435 -31 c0 -6 -4 -7 -10 -4 -5 3 -10 11 -10 16 0 6 5 7 10 4 6 -3 10 -11 10
-16z m120 11 c0 -5 -2 -10 -4 -10 -3 0 -8 5 -11 10 -3 6 -1 10 4 10 6 0 11 -4
11 -10z m-220 -10 c0 -5 -4 -10 -10 -10 -5 0 -10 5 -10 10 0 6 5 10 10 10 6 0
10 -4 10 -10z m-172 -19 c3 -8 -1 -12 -9 -9 -7 2 -15 10 -17 17 -3 8 1 12 9 9
7 -2 15 -10 17 -17z m91 -7 c3 -16 1 -17 -13 -5 -19 16 -21 34 -3 29 6 -3 14
-13 16 -24z m-289 -24 c0 -5 -4 -10 -10 -10 -5 0 -10 5 -10 10 0 6 5 10 10 10
6 0 10 -4 10 -10z m250 -38 c0 -13 -3 -12 -15 4 -19 25 -19 40 0 24 8 -7 15
-20 15 -28z m315 18 c-3 -5 -12 -7 -20 -3 -21 7 -19 13 6 13 11 0 18 -4 14
-10z m-485 -10 c0 -5 -2 -10 -4 -10 -3 0 -8 5 -11 10 -3 6 -1 10 4 10 6 0 11
-4 11 -10z m85 0 c3 -5 -1 -10 -9 -10 -9 0 -16 5 -16 10 0 6 4 10 9 10 6 0 13
-4 16 -10z m250 -38 c-8 -8 -35 20 -35 37 1 12 5 11 21 -8 11 -13 17 -26 14
-29z m-439 27 c9 -14 -19 -42 -39 -37 -11 2 -12 9 -6 26 9 23 33 30 45 11z
m144 -19 c0 -5 -4 -10 -9 -10 -6 0 -13 5 -16 10 -3 6 1 10 9 10 9 0 16 -4 16
-10z m605 0 c-3 -5 -11 -10 -16 -10 -6 0 -7 5 -4 10 3 6 11 10 16 10 6 0 7 -4
4 -10z m-525 -31 c0 -11 -4 -17 -10 -14 -5 3 -10 15 -10 26 0 11 5 17 10 14 6
-3 10 -15 10 -26z m620 -10 c0 -5 -4 -9 -10 -9 -5 0 -10 7 -10 16 0 8 5 12 10
9 6 -3 10 -10 10 -16z m170 -9 c8 -5 12 -12 9 -15 -8 -8 -39 5 -39 16 0 11 11
11 30 -1z m-640 -10 c0 -5 -2 -10 -4 -10 -3 0 -8 5 -11 10 -3 6 -1 10 4 10 6
0 11 -4 11 -10z m-230 -10 c0 -5 -2 -10 -4 -10 -3 0 -8 5 -11 10 -3 6 -1 10 4
10 6 0 11 -4 11 -10z m344 -30 c9 -35 -7 -58 -28 -41 -19 16 -20 34 -4 61 14
22 24 16 32 -20z m162 3 c-4 -4 -11 -1 -16 7 -16 25 -11 35 7 17 9 -9 13 -20
9 -24z m314 23 c0 -15 -21 -26 -47 -26 -14 0 -14 3 2 20 21 23 45 26 45 6z
m-902 -14 c2 -7 -2 -10 -12 -6 -9 3 -16 11 -16 16 0 13 23 5 28 -10z m652 8
c0 -5 -2 -10 -4 -10 -3 0 -8 5 -11 10 -3 6 -1 10 4 10 6 0 11 -4 11 -10z
m-142 -28 c6 -18 -15 -14 -22 4 -4 10 -1 14 6 12 6 -2 14 -10 16 -16z m-432
-9 c21 -28 17 -45 -8 -41 -17 2 -24 11 -26 31 -4 31 14 36 34 10z m94 -10 c0
-5 -7 -17 -15 -27 -15 -20 -15 -20 -15 0 0 12 3 24 7 27 9 9 23 9 23 0z m170
-3 c0 -5 -7 -10 -16 -10 -8 0 -12 5 -9 10 3 6 10 10 16 10 5 0 9 -4 9 -10z
m130 0 c0 -5 -2 -10 -4 -10 -3 0 -8 5 -11 10 -3 6 -1 10 4 10 6 0 11 -4 11
-10z m200 -20 c0 -11 -2 -20 -4 -20 -2 0 -6 9 -9 20 -3 11 -1 20 4 20 5 0 9
-9 9 -20z m320 10 c0 -5 -4 -10 -10 -10 -5 0 -10 5 -10 10 0 6 5 10 10 10 6 0
10 -4 10 -10z m-425 -10 c3 -5 -1 -10 -9 -10 -9 0 -16 5 -16 10 0 6 4 10 9 10
6 0 13 -4 16 -10z m-325 -20 c0 -5 -2 -10 -4 -10 -3 0 -8 5 -11 10 -3 6 -1 10
4 10 6 0 11 -4 11 -10z m400 6 c0 -3 -4 -8 -10 -11 -5 -3 -10 -1 -10 4 0 6 5
11 10 11 6 0 10 -2 10 -4z m198 -20 c3 -15 0 -18 -21 -12 -14 3 -32 9 -41 12
-26 10 -19 -22 9 -40 28 -18 33 -36 11 -36 -21 0 -56 49 -56 77 0 23 3 24 47
21 38 -2 49 -7 51 -22z m-882 -13 c-7 -7 -26 7 -26 19 0 6 6 6 15 -2 9 -7 13
-15 11 -17z m374 12 c0 -11 -41 -45 -55 -45 -8 0 -15 -7 -15 -15 0 -19 -9 -19
-32 2 -30 27 -23 46 15 40 20 -3 40 0 52 9 19 14 35 18 35 9z m127 -18 c14 1
25 -7 29 -19 6 -21 -6 -41 -13 -20 -3 6 -14 12 -24 12 -28 0 -61 19 -53 31 3
6 13 7 23 3 9 -4 26 -7 38 -7z m73 -2 c0 -8 -4 -15 -9 -15 -5 0 -14 7 -21 15
-10 13 -9 15 9 15 12 0 21 -6 21 -15z m110 -10 c0 -8 -7 -15 -15 -15 -8 0 -15
7 -15 15 0 8 7 15 15 15 8 0 15 -7 15 -15z m-623 -17 c-3 -8 -6 -5 -6 6 -1 11
2 17 5 13 3 -3 4 -12 1 -19z m888 11 c3 -4 -4 -10 -15 -14 -21 -7 -40 0 -40
14 0 11 49 11 55 0z m-730 -19 c-15 -16 -15 -22 -5 -35 10 -12 10 -15 -2 -15
-31 0 -38 22 -15 46 27 29 48 32 22 4z m196 -3 c-1 -12 -15 -9 -19 4 -3 6 1
10 8 8 6 -3 11 -8 11 -12z m-283 -26 c3 -16 -1 -22 -10 -19 -7 3 -15 15 -16
27 -3 16 1 22 10 19 7 -3 15 -15 16 -27z m551 12 c8 -15 13 -16 30 -5 18 11
21 10 21 -7 0 -24 -31 -37 -45 -18 -5 7 -18 16 -27 20 -10 3 -18 11 -18 17 0
17 28 11 39 -7z m96 -3 c-3 -5 -10 -10 -16 -10 -5 0 -9 5 -9 10 0 6 7 10 16
10 8 0 12 -4 9 -10z m-800 -11 c12 -19 -5 -23 -22 -6 -16 16 -16 17 -1 17 9 0
20 -5 23 -11z m843 -25 c-10 -10 -28 6 -28 24 0 15 1 15 17 -1 9 -9 14 -19 11
-23z m-380 -17 c2 -10 -3 -17 -12 -17 -10 0 -16 9 -16 21 0 24 23 21 28 -4z
m132 -19 c0 -4 -7 -5 -15 -2 -8 4 -15 16 -15 28 1 21 1 21 15 2 8 -11 15 -23
15 -28z m95 31 c11 -17 -1 -21 -15 -4 -8 9 -8 15 -2 15 6 0 14 -5 17 -11z
m-710 -29 c-3 -10 -1 -21 5 -25 16 -10 12 -33 -9 -45 -14 -7 -22 -7 -26 1 -4
6 2 13 14 16 19 5 20 7 5 34 -15 30 -11 54 7 43 5 -3 7 -14 4 -24z m795 11 c0
-14 -18 -23 -31 -15 -8 4 -7 9 2 15 18 11 29 11 29 0z m178 -3 c18 -18 15 -27
-8 -21 -11 3 -20 12 -20 19 0 17 12 18 28 2z m-81 -4 c-3 -3 -12 -4 -19 -1 -8
3 -5 6 6 6 11 1 17 -2 13 -5z m-332 -14 c3 -5 1 -10 -4 -10 -6 0 -11 5 -11 10
0 6 2 10 4 10 3 0 8 -4 11 -10z m-457 -44 c4 -35 -25 -35 -38 0 -15 38 -13 44
13 35 14 -5 23 -18 25 -35z m712 24 c0 -5 -2 -10 -4 -10 -3 0 -8 5 -11 10 -3
6 -1 10 4 10 6 0 11 -4 11 -10z m-670 -15 c0 -8 -4 -15 -10 -15 -5 0 -7 7 -4
15 4 8 8 15 10 15 2 0 4 -7 4 -15z m130 11 c0 -11 -19 -15 -25 -6 -3 5 1 10 9
10 9 0 16 -2 16 -4z m240 -6 c0 -5 -4 -10 -10 -10 -5 0 -10 5 -10 10 0 6 5 10
10 10 6 0 10 -4 10 -10z m136 -17 c-7 -7 -26 7 -26 19 0 6 6 6 15 -2 9 -7 13
-15 11 -17z m269 7 c3 -5 2 -10 -4 -10 -5 0 -13 5 -16 10 -3 6 -2 10 4 10 5 0
13 -4 16 -10z m-705 -52 c-1 -31 -2 -32 -15 -15 -7 11 -11 25 -8 33 10 25 23
15 23 -18z m-190 1 c0 -6 -4 -7 -10 -4 -5 3 -10 11 -10 16 0 6 5 7 10 4 6 -3
10 -11 10 -16z m58 -1 c-6 -18 -28 -21 -28 -4 0 9 7 16 16 16 9 0 14 -5 12
-12z m649 6 c-3 -3 -12 -4 -19 -1 -8 3 -5 6 6 6 11 1 17 -2 13 -5z m-432 -13
c3 -5 1 -12 -5 -16 -5 -3 -10 1 -10 9 0 18 6 21 15 7z m-160 -50 c7 -12 -12
-24 -25 -16 -11 7 -4 25 10 25 5 0 11 -4 15 -9z m125 -31 c0 -5 -2 -10 -4 -10
-3 0 -8 5 -11 10 -3 6 -1 10 4 10 6 0 11 -4 11 -10z m20 -30 c0 -5 -5 -10 -11
-10 -5 0 -7 5 -4 10 3 6 8 10 11 10 2 0 4 -4 4 -10z m-295 -80 c-3 -5 -14 -10
-23 -10 -15 0 -15 2 -2 10 20 13 33 13 25 0z m452 -326 c-3 -3 -12 -4 -19 -1
-8 3 -5 6 6 6 11 1 17 -2 13 -5z m181 -66 c-2 -6 -10 -14 -16 -16 -7 -2 -10 2
-6 12 7 18 28 22 22 4z m-533 -38 c3 -5 2 -10 -4 -10 -5 0 -13 5 -16 10 -3 6
-2 10 4 10 5 0 13 -4 16 -10z m840 -8 c-3 -3 -11 0 -18 7 -9 10 -8 11 6 5 10
-3 15 -9 12 -12z m-175 -18 c0 -2 -7 -4 -15 -4 -8 0 -15 4 -15 10 0 5 7 7 15
4 8 -4 15 -8 15 -10z m40 -4 c0 -5 -5 -10 -11 -10 -5 0 -7 5 -4 10 3 6 8 10
11 10 2 0 4 -4 4 -10z m540 -20 c0 -5 -4 -10 -9 -10 -6 0 -13 5 -16 10 -3 6 1
10 9 10 9 0 16 -4 16 -10z m-920 -31 c0 -5 -4 -9 -10 -9 -5 0 -10 7 -10 16 0
8 5 12 10 9 6 -3 10 -10 10 -16z m120 5 c0 -8 -4 -12 -10 -9 -5 3 -10 10 -10
16 0 5 5 9 10 9 6 0 10 -7 10 -16z m310 -10 c0 -16 -16 -19 -25 -4 -8 13 4 32
16 25 5 -4 9 -13 9 -21z m-740 -24 c0 -5 -5 -10 -11 -10 -5 0 -7 5 -4 10 3 6
8 10 11 10 2 0 4 -4 4 -10z m861 -20 c5 0 9 -5 9 -11 0 -15 -43 -7 -48 10 -3
10 0 12 12 8 10 -4 22 -7 27 -7z m64 0 c3 -5 1 -10 -4 -10 -6 0 -11 5 -11 10
0 6 2 10 4 10 3 0 8 -4 11 -10z m-955 -21 c0 -6 -4 -7 -10 -4 -5 3 -10 11 -10
16 0 6 5 7 10 4 6 -3 10 -11 10 -16z m135 -9 c3 -5 1 -10 -4 -10 -6 0 -11 5
-11 10 0 6 2 10 4 10 3 0 8 -4 11 -10z m310 0 c-3 -5 -11 -10 -16 -10 -6 0 -7
5 -4 10 3 6 11 10 16 10 6 0 7 -4 4 -10z m195 1 c0 -13 -29 -35 -37 -28 -7 8
15 37 28 37 5 0 9 -4 9 -9z m-305 -11 c3 -5 1 -10 -4 -10 -6 0 -11 5 -11 10 0
6 2 10 4 10 3 0 8 -4 11 -10z m525 -10 c0 -5 -5 -10 -11 -10 -5 0 -7 5 -4 10
3 6 8 10 11 10 2 0 4 -4 4 -10z m110 0 c0 -5 -4 -10 -10 -10 -5 0 -10 5 -10
10 0 6 5 10 10 10 6 0 10 -4 10 -10z m35 0 c3 -5 1 -10 -4 -10 -6 0 -11 5 -11
10 0 6 2 10 4 10 3 0 8 -4 11 -10z m-1005 -9 c0 -13 -26 -32 -33 -24 -8 7 11
33 24 33 5 0 9 -4 9 -9z m580 -11 c0 -5 -4 -10 -10 -10 -5 0 -10 5 -10 10 0 6
5 10 10 10 6 0 10 -4 10 -10z m-163 -17 c3 -7 -4 -9 -16 -6 -12 3 -18 9 -15
15 7 11 26 6 31 -9z m-387 -24 c0 -6 -9 -8 -22 -3 -29 8 -31 10 -23 23 7 13
45 -4 45 -20z m755 11 c-3 -5 -10 -10 -16 -10 -5 0 -9 5 -9 10 0 6 7 10 16 10
8 0 12 -4 9 -10z m-852 -38 c-3 -12 -9 -22 -14 -22 -12 0 -11 7 3 30 15 24 19
21 11 -8z m257 -7 c0 -8 -2 -15 -4 -15 -2 0 -6 7 -10 15 -3 8 -1 15 4 15 6 0
10 -7 10 -15z"/>
<path d="M5399 3730 c-57 -10 -82 -23 -130 -67 -48 -45 -65 -83 -49 -113 9
-17 9 -25 -4 -39 -20 -22 -20 -47 0 -55 25 -9 32 -7 53 15 22 23 21 27 6 -43
-3 -15 -15 -32 -26 -39 -19 -10 -20 -9 -14 11 7 21 -6 39 -27 40 -5 0 -8 -162
-8 -360 0 -331 1 -360 18 -370 16 -11 16 -11 0 -6 -15 4 -18 -1 -18 -25 0 -18
4 -28 10 -24 6 3 10 2 10 -4 0 -5 -5 -13 -10 -16 -7 -4 -9 -171 -8 -480 l3
-473 30 -43 c17 -24 53 -57 80 -74 l48 -30 550 -3 c320 -2 546 1 543 6 -3 5 6
7 19 4 27 -5 77 22 114 62 24 26 24 26 5 47 l-19 22 31 -6 c26 -5 33 -2 37 13
3 13 -1 21 -13 25 -10 3 -24 12 -31 21 -10 12 -7 14 22 12 l34 -3 3 75 c3 71
1 77 -24 100 -18 17 -28 21 -31 13 -5 -14 -33 -18 -33 -5 0 17 25 32 52 32 15
0 28 -5 28 -12 0 -6 3 -9 6 -5 3 3 -1 20 -9 36 -14 27 -14 32 0 39 9 6 13 20
11 38 -2 22 -9 30 -28 32 -24 3 -24 3 -5 -12 20 -15 20 -15 -6 -41 -19 -20
-38 -27 -73 -30 -50 -3 -77 -17 -57 -29 6 -4 11 -18 11 -32 0 -16 8 -28 25
-36 28 -13 33 -28 9 -28 -22 0 -84 39 -84 52 0 6 6 8 14 5 11 -5 26 11 26 27
0 2 -18 3 -40 4 -30 1 -40 -2 -40 -13 0 -18 -16 -20 -26 -4 -5 8 -8 8 -13 0
-5 -7 -20 -9 -40 -5 -29 6 -32 10 -29 38 3 28 0 31 -29 34 -25 2 -33 8 -33 23
0 10 -4 19 -10 19 -5 0 -10 5 -10 10 0 6 6 9 13 8 6 -2 11 5 9 15 -4 23 3 22
32 -8 24 -24 56 -34 56 -17 0 4 -7 18 -16 30 -10 15 -13 27 -6 35 13 16 -1 50
-22 53 -13 2 -15 -1 -6 -11 6 -7 8 -25 4 -41 l-7 -27 -19 23 c-10 13 -16 30
-13 37 9 26 -12 51 -40 46 -21 -4 -25 -11 -25 -38 0 -29 2 -32 25 -27 30 5 31
-6 6 -50 -30 -53 -35 -76 -14 -74 10 0 17 -5 15 -12 -2 -9 4 -11 18 -7 22 7
26 -5 10 -36 -14 -25 -26 -24 -34 4 -6 20 -7 21 -17 4 -8 -14 -18 -17 -42 -11
-28 6 -30 5 -18 -9 16 -20 7 -37 -20 -37 -12 0 -19 7 -19 19 0 25 -19 31 -95
31 -41 0 -65 -4 -69 -12 -5 -10 -7 -10 -12 0 -4 8 -35 12 -103 12 -134 0 -135
1 -141 137 l-5 108 -27 -3 c-21 -2 -28 2 -28 14 0 12 7 15 30 12 l30 -5 -1
118 c0 104 -2 116 -17 113 -25 -6 -59 27 -67 65 -6 26 -4 32 6 29 8 -3 15 -17
17 -31 2 -15 9 -27 17 -27 7 0 20 -3 29 -6 14 -5 16 17 16 205 0 134 -4 211
-10 211 -5 0 -10 7 -10 15 0 8 4 15 10 15 5 0 9 61 9 150 1 123 -2 150 -14
150 -22 0 -28 19 -8 27 29 10 53 35 53 55 0 11 4 17 9 14 5 -3 11 4 15 17 10
37 7 47 -14 47 -23 0 -27 15 -5 24 18 7 20 33 3 39 -7 2 -10 7 -7 11 13 13 39
-7 39 -30 0 -15 6 -24 16 -24 13 0 15 -7 10 -37 -5 -30 -4 -34 4 -20 15 23 29
22 23 -3 -3 -11 -12 -20 -19 -20 -8 0 -14 -7 -14 -15 0 -9 9 -15 25 -15 20 0
25 5 25 25 0 22 9 30 33 26 4 0 7 12 7 29 0 30 6 36 26 22 16 -10 25 -90 10
-96 -6 -3 2 -4 18 -3 25 2 31 8 39 37 5 19 10 36 12 38 1 2 20 -4 40 -12 29
-12 36 -20 32 -35 -3 -14 2 -20 20 -24 15 -3 27 1 30 9 3 8 18 14 34 14 29 0
39 -14 17 -23 -9 -4 -7 -6 3 -6 32 -2 89 -71 59 -71 -5 0 -10 -5 -10 -11 0 -6
7 -9 15 -5 8 3 15 2 15 -3 0 -5 -7 -14 -15 -21 -12 -10 -15 -37 -15 -121 0
-66 4 -109 10 -109 6 0 10 9 10 20 0 11 5 20 10 20 16 0 12 -24 -8 -46 -18
-20 -26 -74 -11 -74 5 0 9 -13 9 -30 0 -16 -4 -30 -9 -30 -14 0 -8 -65 8 -84
10 -12 17 -13 26 -6 9 8 15 8 20 0 16 -26 -29 -42 -53 -18 -9 9 -12 4 -12 -25
0 -28 3 -35 15 -31 9 4 15 0 15 -10 0 -9 -7 -16 -15 -16 -19 0 -19 -13 1 -51
16 -31 12 -65 -6 -54 -14 9 -13 -8 2 -23 9 -9 9 -12 0 -12 -21 0 -13 -32 13
-56 29 -27 32 -52 8 -61 -16 -6 -15 -8 5 -13 31 -7 24 -25 -10 -25 -22 0 -24
-2 -15 -14 9 -11 9 -15 0 -18 -7 -3 -13 -14 -13 -26 0 -20 0 -20 25 3 14 13
28 20 32 17 3 -4 12 -2 19 4 9 7 21 6 43 -5 43 -23 106 -21 131 4 14 14 28 18
45 14 19 -5 25 -2 25 10 0 16 2 16 22 2 12 -9 31 -16 41 -16 15 0 16 -3 6 -21
-11 -21 -39 -23 -81 -4 -14 6 -18 2 -18 -18 0 -28 35 -45 44 -21 9 24 29 16
22 -10 -5 -20 -1 -24 24 -30 17 -3 33 -14 37 -23 4 -10 19 -30 35 -45 l28 -26
0 93 c0 61 -4 95 -11 97 -9 3 -8 10 2 25 10 18 11 24 0 37 -8 9 -9 16 -4 16
15 0 15 100 1 117 -8 10 -8 17 -2 21 6 4 11 49 12 100 1 84 -1 92 -18 92 -21
0 -37 -39 -27 -65 4 -8 2 -17 -3 -20 -5 -3 -18 12 -30 35 -11 22 -27 40 -35
40 -9 0 -12 6 -9 15 9 23 -19 18 -34 -6 -13 -20 -13 -20 -33 4 -10 14 -19 28
-19 31 0 3 -9 15 -19 25 -12 12 -17 27 -14 40 7 26 23 28 23 3 0 -10 3 -22 7
-25 11 -12 33 15 33 41 l0 26 17 -23 c13 -19 14 -28 5 -42 -19 -30 -15 -51 8
-44 11 4 35 1 54 -5 36 -12 92 2 81 20 -3 5 -1 10 4 10 6 0 11 12 10 28 0 24
-1 25 -9 7 -5 -11 -9 -14 -9 -7 -1 6 -10 12 -20 12 -11 0 -23 5 -26 10 -3 6 3
10 14 10 12 0 21 4 21 10 0 5 7 7 15 4 13 -5 15 18 14 172 0 156 -2 179 -17
190 -16 12 -16 13 1 19 23 10 23 81 0 108 -17 18 -17 19 0 32 24 18 23 141 -2
150 -9 3 -17 1 -19 -4 -6 -17 -42 -13 -42 4 0 10 10 15 29 15 17 0 33 5 36 10
9 15 -14 78 -34 92 -9 7 -20 21 -24 31 -7 19 -114 73 -124 63 -4 -3 -1 -6 6
-6 7 0 10 -4 6 -10 -3 -5 -12 -7 -20 -4 -8 4 -13 10 -10 14 3 4 -7 10 -21 13
-38 7 -204 9 -204 2 0 -4 5 -15 10 -26 16 -29 -5 -23 -30 9 -14 18 -23 23 -26
15 -3 -7 -10 -13 -15 -13 -6 0 -8 4 -4 9 3 6 -20 10 -57 10 -56 -1 -60 -2 -40
-13 26 -14 21 -21 -37 -51 l-34 -17 7 24 c15 50 15 51 -58 55 -59 3 -68 2 -63
-11 8 -20 -16 -21 -32 -2 -17 21 -367 20 -375 0 -3 -8 -13 -14 -22 -14 -13 0
-14 3 -4 15 7 8 11 14 9 14 -2 -1 -25 -5 -50 -9z m409 -12 c-5 -16 -48 -24
-48 -9 0 8 17 16 43 20 5 0 7 -5 5 -11z m344 -32 c11 -17 -1 -26 -35 -26 l-32
-1 39 -20 c35 -19 38 -23 32 -52 -3 -17 -14 -39 -23 -49 -17 -19 -73 -25 -73
-8 0 6 11 10 24 10 13 0 26 6 29 14 8 20 -30 66 -53 66 -10 0 -22 5 -25 10 -8
13 14 42 26 34 5 -3 17 8 26 25 15 25 20 28 38 19 11 -6 23 -16 27 -22z m-492
14 c8 -5 12 -12 8 -15 -9 -9 -48 4 -48 16 0 12 21 11 40 -1z m770 0 c0 -5 -4
-10 -10 -10 -5 0 -10 5 -10 10 0 6 5 10 10 10 6 0 10 -4 10 -10z m-1086 -25
c-4 -17 -2 -25 7 -25 9 0 7 -5 -5 -11 -14 -9 -20 -8 -27 2 -12 19 -11 25 7 43
21 22 25 20 18 -9z m132 6 c-7 -11 -66 -20 -66 -10 0 10 20 17 48 18 13 1 21
-3 18 -8z m64 -7 c0 -14 -3 -14 -15 -4 -8 7 -15 14 -15 16 0 2 7 4 15 4 8 0
15 -7 15 -16z m210 6 c0 -5 -4 -10 -10 -10 -5 0 -10 5 -10 10 0 6 5 10 10 10
6 0 10 -4 10 -10z m50 -5 c0 -8 -4 -15 -10 -15 -5 0 -10 7 -10 15 0 8 5 15 10
15 6 0 10 -7 10 -15z m100 2 c0 -20 -9 -25 -31 -20 -15 4 -17 8 -8 19 15 18
39 18 39 1z m470 3 c0 -5 -2 -10 -4 -10 -3 0 -8 5 -11 10 -3 6 -1 10 4 10 6 0
11 -4 11 -10z m-747 -40 c7 0 6 -5 -2 -12 -10 -10 -15 -10 -18 -1 -2 7 -11 9
-20 6 -11 -4 -14 -3 -9 6 5 7 15 10 23 7 8 -3 20 -6 26 -6z m37 0 c0 -5 -5
-10 -11 -10 -5 0 -7 5 -4 10 3 6 8 10 11 10 2 0 4 -4 4 -10z m561 -33 c-15
-15 -21 -5 -14 22 5 21 7 21 16 6 6 -11 5 -21 -2 -28z m259 28 c20 -24 5 -28
-21 -6 -19 16 -20 20 -8 21 9 0 22 -7 29 -15z m-1025 -5 c-3 -5 -11 -10 -16
-10 -6 0 -7 5 -4 10 3 6 11 10 16 10 6 0 7 -4 4 -10z m248 -15 c-3 -8 -14 -15
-26 -15 -19 0 -19 1 -2 20 19 21 37 18 28 -5z m-293 5 c0 -5 -4 -10 -9 -10 -6
0 -13 5 -16 10 -3 6 1 10 9 10 9 0 16 -4 16 -10z m352 -5 c0 -5 -5 -11 -11
-13 -6 -2 -11 4 -11 13 0 9 5 15 11 13 6 -2 11 -8 11 -13z m268 4 c0 -6 -5
-20 -11 -31 -11 -21 -12 -21 -25 3 -19 34 -17 39 11 39 14 0 25 -5 25 -11z
m250 -4 c0 -8 -7 -15 -15 -15 -26 0 -18 20 13 29 1 1 2 -6 2 -14z m-715 -5 c3
-5 -3 -10 -14 -10 -11 0 -23 5 -26 10 -3 6 3 10 14 10 11 0 23 -4 26 -10z
m385 0 c0 -5 -4 -10 -10 -10 -5 0 -10 5 -10 10 0 6 5 10 10 10 6 0 10 -4 10
-10z m445 0 c3 -5 1 -10 -4 -10 -6 0 -11 5 -11 10 0 6 2 10 4 10 3 0 8 -4 11
-10z m-1017 -6 c33 -9 27 -21 -14 -29 -24 -4 -38 -13 -41 -26 -7 -25 -20 -24
-28 1 -8 26 1 40 26 40 10 0 19 5 19 10 0 11 6 12 38 4z m86 -10 c29 -11 18
-31 -14 -26 -29 4 -37 12 -23 25 8 9 17 9 37 1z m136 -20 c0 -14 -4 -23 -10
-19 -5 3 -10 15 -10 26 0 10 5 19 10 19 6 0 10 -12 10 -26z m290 17 c0 -13
-29 -35 -37 -28 -7 8 15 37 28 37 5 0 9 -4 9 -9z m635 -1 c3 -5 2 -10 -4 -10
-5 0 -13 5 -16 10 -3 6 -2 10 4 10 5 0 13 -4 16 -10z m-571 -15 c3 -8 3 -22 0
-30 -4 -8 -1 -15 5 -15 16 0 13 -27 -4 -34 -26 -10 -45 20 -34 56 5 18 9 34 9
35 0 10 19 0 24 -12z m96 -1 c0 -8 -4 -12 -10 -9 -5 3 -10 10 -10 16 0 5 5 9
10 9 6 0 10 -7 10 -16z m260 -3 c0 -11 -5 -23 -10 -26 -14 -8 -50 4 -50 17 0
5 6 8 14 5 8 -3 17 1 20 9 8 21 26 17 26 -5z m310 10 c0 -13 -29 -35 -37 -28
-7 8 15 37 28 37 5 0 9 -4 9 -9z m-865 -11 c4 -6 -8 -10 -29 -10 -19 0 -38 5
-41 10 -4 6 8 10 29 10 19 0 38 -4 41 -10z m66 -10 c25 -14 27 -63 2 -58 -10
2 -18 9 -18 16 0 7 -6 17 -14 21 -7 5 -10 14 -7 20 9 14 12 14 37 1z m-454 -6
c-3 -3 -12 -4 -19 -1 -8 3 -5 6 6 6 11 1 17 -2 13 -5z m39 -19 c-3 -8 2 -15
11 -17 9 -2 21 -22 28 -45 11 -36 10 -43 -3 -48 -9 -3 -14 -3 -10 0 10 10 -13
66 -26 62 -6 -2 -13 -17 -16 -33 -6 -27 -6 -28 -17 -9 -9 16 -8 26 3 45 7 14
13 35 14 48 0 14 4 21 11 17 6 -4 8 -13 5 -20z m1108 -8 c6 -9 7 -19 3 -23 -9
-10 -48 26 -41 38 8 12 25 6 38 -15z m-455 -49 c-13 -24 -16 -23 -34 12 -21
40 -11 54 19 27 19 -16 22 -26 15 -39z m151 52 c0 -5 -4 -10 -10 -10 -5 0 -10
5 -10 10 0 6 5 10 10 10 6 0 10 -4 10 -10z m-718 -15 c0 -5 -5 -11 -11 -13 -6
-2 -11 4 -11 13 0 9 5 15 11 13 6 -2 11 -8 11 -13z m216 3 c19 -19 14 -30 -8
-18 -11 6 -20 15 -20 20 0 14 14 12 28 -2z m592 2 c0 -5 -4 -10 -9 -10 -6 0
-13 5 -16 10 -3 6 1 10 9 10 9 0 16 -4 16 -10z m127 -12 c-3 -8 -6 -5 -6 6 -1
11 2 17 5 13 3 -3 4 -12 1 -19z m-747 -22 c0 -17 -28 -41 -37 -32 -4 4 -2 10
4 14 8 5 9 13 3 22 -15 24 -11 31 10 20 11 -6 20 -17 20 -24z m113 5 c-3 -23
7 -27 24 -10 8 8 15 6 25 -10 15 -24 28 -27 28 -7 0 8 5 18 11 21 12 8 49 -22
49 -39 0 -16 -79 -19 -107 -4 -17 8 -29 8 -48 0 -22 -10 -25 -9 -25 8 0 32 19
72 33 67 6 -2 11 -14 10 -26z m77 19 c0 -5 -4 -10 -10 -10 -5 0 -10 5 -10 10
0 6 5 10 10 10 6 0 10 -4 10 -10z m-275 -11 c10 -15 -1 -23 -20 -15 -9 3 -13
10 -10 16 8 13 22 13 30 -1z m519 -5 c4 -10 1 -14 -6 -12 -15 5 -23 28 -10 28
5 0 13 -7 16 -16z m231 -24 c-1 -11 -4 -23 -8 -26 -9 -9 -29 45 -21 57 9 15
31 -8 29 -31z m-332 24 c5 -6 -31 -84 -39 -84 -5 0 2 52 11 73 7 17 17 22 28
11z m465 -23 c-2 -10 3 -15 15 -13 9 2 17 -2 17 -8 0 -12 -20 -13 -36 -2 -6 4
-14 17 -18 29 -6 18 -4 22 9 17 8 -4 14 -14 13 -23z m98 -23 c-3 -12 2 -18 12
-18 13 0 13 -3 4 -12 -10 -10 -14 -10 -21 0 -4 8 -15 12 -22 10 -8 -2 -14 2
-14 7 0 6 8 10 17 9 13 0 15 4 7 17 -15 29 -10 46 7 24 8 -11 13 -28 10 -37z
m-316 32 c0 -5 -4 -10 -10 -10 -5 0 -10 5 -10 10 0 6 5 10 10 10 6 0 10 -4 10
-10z m345 0 c3 -5 1 -10 -4 -10 -6 0 -11 5 -11 10 0 6 2 10 4 10 3 0 8 -4 11
-10z m-1090 -10 c3 -5 1 -10 -4 -10 -6 0 -11 5 -11 10 0 6 2 10 4 10 3 0 8 -4
11 -10z m635 1 c0 -12 -20 -25 -27 -18 -7 7 6 27 18 27 5 0 9 -4 9 -9z m275
-11 c3 -5 -1 -22 -9 -37 l-15 -28 -1 38 c0 35 12 48 25 27z m-840 -9 c10 -17
-11 -21 -31 -6 -18 14 -18 14 3 15 12 0 24 -4 28 -9z m51 -28 c-3 -8 -6 -19
-6 -24 0 -5 -4 -9 -9 -9 -5 0 -11 15 -13 34 -3 31 -2 33 15 24 11 -5 16 -16
13 -25z m454 24 c0 -7 9 -18 20 -25 13 -8 20 -23 20 -42 0 -45 -22 -36 -45 17
-11 26 -21 51 -23 55 -2 4 3 8 12 8 9 0 16 -6 16 -13z m-410 -7 c0 -5 -4 -10
-10 -10 -5 0 -10 5 -10 10 0 6 5 10 10 10 6 0 10 -4 10 -10z m377 -28 c4 -8 1
-18 -5 -20 -20 -6 -13 -32 8 -32 23 0 27 -15 6 -23 -20 -8 -42 25 -48 71 -6
39 -5 41 14 31 10 -6 22 -18 25 -27z m190 22 c3 -9 13 -14 23 -11 29 8 44 -7
30 -29 -10 -16 -11 -16 -6 -2 4 15 3 16 -14 6 -16 -10 -23 -8 -44 11 -14 13
-23 28 -20 32 8 14 24 10 31 -7z m-317 -59 c0 -46 -14 -44 -28 4 -16 51 -15
53 8 41 14 -8 20 -21 20 -45z m268 43 c7 -7 11 -23 11 -37 -1 -19 -3 -21 -6
-8 -3 12 -10 16 -21 12 -16 -6 -32 10 -32 33 0 15 32 16 48 0z m452 2 c0 -5
-4 -10 -9 -10 -6 0 -13 5 -16 10 -3 6 1 10 9 10 9 0 16 -4 16 -10z m-1345 -10
c3 -5 -1 -10 -9 -10 -9 0 -16 5 -16 10 0 6 4 10 9 10 6 0 13 -4 16 -10z m190
0 c-3 -5 -15 -10 -26 -10 -11 0 -17 -4 -14 -10 7 -11 -8 -14 -18 -3 -4 3 1 12
11 19 20 16 56 19 47 4z m45 0 c0 -5 -4 -10 -10 -10 -5 0 -10 5 -10 10 0 6 5
10 10 10 6 0 10 -4 10 -10z m275 0 c3 -5 -1 -10 -9 -10 -9 0 -16 5 -16 10 0 6
4 10 9 10 6 0 13 -4 16 -10z m685 -10 c0 -5 -7 -10 -16 -10 -8 0 -12 5 -9 10
3 6 10 10 16 10 5 0 9 -4 9 -10z m-515 -10 c3 -5 1 -10 -4 -10 -6 0 -11 5 -11
10 0 6 2 10 4 10 3 0 8 -4 11 -10z m345 -4 c0 -3 -4 -8 -10 -11 -5 -3 -10 -1
-10 4 0 6 5 11 10 11 6 0 10 -2 10 -4z m80 -6 c0 -5 -5 -10 -11 -10 -5 0 -7 5
-4 10 3 6 8 10 11 10 2 0 4 -4 4 -10z m-875 -11 c31 -8 42 -15 38 -25 -3 -10
-9 -11 -17 -5 -6 5 -26 11 -45 13 -19 2 -36 9 -39 16 -5 15 7 15 63 1z m915 1
c0 -5 -5 -10 -11 -10 -5 0 -7 5 -4 10 3 6 8 10 11 10 2 0 4 -4 4 -10z m110
-22 c0 -12 44 -53 53 -50 4 1 7 -5 7 -14 0 -13 -3 -14 -14 -5 -8 6 -20 10 -26
9 -7 -2 -17 12 -22 30 -6 23 -13 32 -24 28 -9 -4 -14 1 -14 14 0 18 3 19 20 8
11 -7 20 -16 20 -20z m-1090 -7 c0 -25 -16 -36 -27 -19 -14 24 -11 38 8 38 12
0 19 -7 19 -19z m184 -4 c8 -12 7 -21 -6 -33 -20 -20 -38 -11 -38 20 0 39 23
46 44 13z m639 4 c-2 -6 7 -10 19 -8 25 2 39 -30 18 -43 -6 -4 -12 -21 -12
-38 -1 -37 1 -36 -33 -20 -31 14 -33 38 -3 38 20 0 20 1 4 19 -13 15 -14 20
-4 24 8 4 5 8 -9 12 -25 8 -30 21 -10 28 17 7 32 1 30 -12z m-763 -19 c0 -13
-12 -22 -22 -16 -10 6 -1 24 13 24 5 0 9 -4 9 -8z m860 -2 c0 -5 -2 -10 -4
-10 -3 0 -8 5 -11 10 -3 6 -1 10 4 10 6 0 11 -4 11 -10z m83 -8 c17 -18 14
-32 -6 -32 -6 0 -8 3 -4 6 3 4 -4 15 -16 25 -17 14 -19 18 -6 19 9 0 23 -8 32
-18z m-888 -10 c0 -7 -3 -12 -7 -12 -55 0 -54 0 -33 15 21 17 40 15 40 -3z
m835 -8 c0 -8 -4 -12 -10 -9 -5 3 -10 13 -10 21 0 8 5 12 10 9 6 -3 10 -13 10
-21z m-180 -29 c0 -18 -2 -18 -34 -3 -20 8 -23 14 -15 24 14 17 49 1 49 -21z
m-620 -14 c-12 -23 -30 -36 -30 -22 0 21 13 41 26 41 11 0 12 -4 4 -19z m867
-8 c3 -7 -4 -9 -16 -6 -12 3 -18 9 -15 15 7 11 26 6 31 -9z m86 2 c-1 -5 -11
-11 -23 -13 -11 -2 -18 -8 -15 -13 9 -13 -9 -11 -23 3 -24 24 -14 39 26 36 20
-2 36 -7 35 -13z m-208 -25 c-3 -5 -11 -10 -16 -10 -6 0 -7 5 -4 10 3 6 11 10
16 10 6 0 7 -4 4 -10z m195 -24 c0 -3 -4 -8 -10 -11 -5 -3 -10 -1 -10 4 0 6 5
11 10 11 6 0 10 -2 10 -4z m-290 -52 c0 -8 -4 -12 -10 -9 -5 3 -10 10 -10 16
0 5 5 9 10 9 6 0 10 -7 10 -16z m70 -34 c0 -5 -2 -10 -4 -10 -3 0 -8 5 -11 10
-3 6 -1 10 4 10 6 0 11 -4 11 -10z m105 -22 c-6 -17 -4 -20 9 -15 9 4 16 2 16
-3 0 -13 -37 -13 -44 -1 -8 12 4 41 16 41 5 0 6 -10 3 -22z m-117 -18 c2 -23
2 -24 -9 -6 -12 19 -12 19 -25 1 -10 -13 -17 -16 -24 -9 -18 18 -1 43 28 41
21 -2 28 -8 30 -27z m294 -12 c-7 -7 -12 -8 -12 -2 0 14 12 26 19 19 2 -3 -1
-11 -7 -17z m-1012 -18 c0 -5 -5 -10 -11 -10 -5 0 -7 5 -4 10 3 6 8 10 11 10
2 0 4 -4 4 -10z m760 -10 c0 -5 -7 -10 -16 -10 -8 0 -12 5 -9 10 3 6 10 10 16
10 5 0 9 -4 9 -10z m-70 -34 c0 -14 -29 -31 -38 -21 -6 6 18 35 29 35 5 0 9
-6 9 -14z m297 -5 c-3 -11 0 -22 7 -24 6 -2 3 -3 -6 -2 -10 2 -18 -2 -18 -8 0
-7 -5 -19 -10 -27 -9 -13 -11 -13 -20 0 -17 26 -12 49 10 43 15 -4 20 0 20 16
0 11 5 21 11 21 6 0 9 -9 6 -19z m-1043 -8 c-5 -5 -12 -12 -16 -18 -4 -6 -8
-2 -8 8 0 9 7 17 17 17 9 0 12 -3 7 -7z m831 -3 c3 -5 -3 -10 -15 -10 -12 0
-19 -4 -15 -9 9 -16 -15 -24 -30 -11 -20 16 -19 28 3 33 31 8 51 7 57 -3z
m260 -30 c3 -5 -1 -10 -10 -10 -9 0 -13 5 -10 10 3 6 8 10 10 10 2 0 7 -4 10
-10z m-1135 -20 c0 -5 -4 -10 -9 -10 -6 0 -13 5 -16 10 -3 6 1 10 9 10 9 0 16
-4 16 -10z m-132 -18 c2 -7 -3 -12 -12 -12 -9 0 -16 7 -16 16 0 17 22 14 28
-4z m862 8 c0 -5 -6 -10 -14 -10 -8 0 -18 5 -21 10 -3 6 3 10 14 10 12 0 21
-4 21 -10z m84 -15 c4 -10 -1 -15 -14 -15 -20 0 -26 11 -13 23 10 11 20 8 27
-8z m226 -10 c7 -8 20 -15 28 -15 12 0 13 -3 5 -11 -8 -8 -21 -8 -48 1 -27 9
-40 9 -48 1 -15 -15 -27 -14 -27 4 0 31 68 47 90 20z m50 11 c0 -3 -4 -8 -10
-11 -5 -3 -10 -1 -10 4 0 6 5 11 10 11 6 0 10 -2 10 -4z m-1269 -29 c-1 -12
-15 -9 -19 4 -3 6 1 10 8 8 6 -3 11 -8 11 -12z m934 -9 c-1 -17 -9 -24 -28
-26 -33 -4 -34 4 -4 29 29 24 34 24 32 -3z m376 6 c12 -14 11 -16 -5 -13 -11
2 -21 10 -24 17 -5 17 13 15 29 -4z m-333 -28 c3 -12 -1 -17 -10 -14 -7 3 -15
13 -16 22 -3 12 1 17 10 14 7 -3 15 -13 16 -22z m150 6 c6 -18 -15 -14 -22 4
-4 10 -1 14 6 12 6 -2 14 -10 16 -16z m82 -23 c0 -11 -4 -17 -10 -14 -5 3 -10
15 -10 26 0 11 5 17 10 14 6 -3 10 -15 10 -26z m-1155 1 c3 -5 1 -10 -4 -10
-6 0 -11 5 -11 10 0 6 2 10 4 10 3 0 8 -4 11 -10z m195 0 c-20 -13 -33 -13
-25 0 3 6 14 10 23 10 15 0 15 -2 2 -10z m60 -4 c0 -3 -4 -8 -10 -11 -5 -3
-10 -1 -10 4 0 6 5 11 10 11 6 0 10 -2 10 -4z m715 -2 c32 -13 52 -84 23 -84
-5 0 -18 -10 -27 -22 -18 -22 -41 -18 -41 8 0 8 9 23 21 35 18 18 19 25 10 45
-11 26 -11 27 14 18z m-872 -39 c-3 -8 -9 -15 -14 -15 -10 0 -12 24 -3 33 11
11 24 -3 17 -18z m807 -1 c12 -12 11 -14 -13 -14 -16 0 -26 -4 -22 -10 3 -5 2
-10 -3 -10 -5 0 -12 8 -16 18 -3 9 -9 23 -12 30 -8 17 45 6 66 -14z m-1035
-34 c-3 -6 -10 -10 -16 -10 -10 0 -12 33 -2 44 9 9 26 -22 18 -34z m65 30 c0
-5 -4 -10 -9 -10 -6 0 -13 5 -16 10 -3 6 1 10 9 10 9 0 16 -4 16 -10z m1290
-10 c0 -13 -28 -25 -38 -16 -3 4 0 11 8 16 20 13 30 12 30 0z m-390 -20 c0 -5
-2 -10 -4 -10 -3 0 -8 5 -11 10 -3 6 -1 10 4 10 6 0 11 -4 11 -10z m66 -45
c-3 -9 -11 -13 -16 -10 -8 5 -7 11 1 21 14 18 24 11 15 -11z m160 -19 c-3 -12
1 -34 8 -48 12 -23 12 -28 -3 -42 -22 -20 -41 -20 -69 0 -21 14 -26 14 -67 -6
-25 -12 -43 -26 -39 -31 9 -15 -14 -10 -31 7 -23 24 -15 48 19 52 18 2 26 0
21 -7 -3 -6 -1 -11 4 -11 6 0 16 9 23 20 9 13 19 18 35 14 46 -12 72 3 79 46
4 22 11 37 16 34 5 -4 7 -16 4 -28z m-1009 -13 c-9 -9 -19 -14 -23 -11 -10 10
6 28 24 28 15 0 15 -1 -1 -17z m73 -9 c0 -8 -4 -12 -10 -9 -5 3 -10 10 -10 16
0 5 5 9 10 9 6 0 10 -7 10 -16z m885 -4 c0 -8 -6 -15 -12 -14 -38 3 -43 5 -43
17 0 8 11 13 28 12 17 0 27 -5 27 -15z m-1085 -20 c0 -5 -2 -10 -4 -10 -3 0
-8 5 -11 10 -3 6 -1 10 4 10 6 0 11 -4 11 -10z m335 -19 c-3 -6 -14 -11 -23
-11 -15 1 -15 2 2 15 21 16 32 13 21 -4z m865 9 c0 -5 -4 -10 -10 -10 -5 0
-10 5 -10 10 0 6 5 10 10 10 6 0 10 -4 10 -10z m43 -51 c-13 -13 -75 -8 -80 6
-6 18 60 33 77 18 10 -9 11 -16 3 -24z m-1253 10 c0 -11 -4 -17 -10 -14 -5 3
-10 13 -10 21 0 8 5 14 10 14 6 0 10 -9 10 -21z m1330 11 c0 -5 -7 -10 -16
-10 -8 0 -12 5 -9 10 3 6 10 10 16 10 5 0 9 -4 9 -10z m-240 -52 c0 -6 -6 -8
-14 -5 -7 3 -18 1 -24 -5 -12 -12 -42 -4 -42 11 0 15 53 30 68 18 6 -5 12 -14
12 -19z m-970 12 c0 -5 -2 -10 -4 -10 -3 0 -8 5 -11 10 -3 6 -1 10 4 10 6 0
11 -4 11 -10z m140 -5 c10 -12 10 -15 -4 -15 -9 0 -16 7 -16 15 0 8 2 15 4 15
2 0 9 -7 16 -15z m877 -5 c-4 -15 0 -20 14 -20 32 0 21 -16 -18 -28 -43 -13
-50 -10 -29 11 8 8 12 17 9 20 -8 9 5 37 18 37 6 0 9 -9 6 -20z m-1097 -11 c0
-6 -4 -7 -10 -4 -5 3 -10 11 -10 16 0 6 5 7 10 4 6 -3 10 -11 10 -16z m1186
-12 c1 -15 -2 -27 -7 -27 -6 0 -6 -7 1 -19 18 -35 11 -45 -15 -21 -14 13 -25
34 -25 47 0 25 15 31 24 11 3 -7 4 0 1 15 -4 20 -2 28 6 25 7 -2 13 -16 15
-31z m-1276 3 c0 -5 -5 -10 -11 -10 -5 0 -7 5 -4 10 3 6 8 10 11 10 2 0 4 -4
4 -10z m1028 -17 c2 -8 -5 -13 -17 -13 -21 0 -35 13 -24 24 10 10 36 3 41 -11z
m-883 -13 c3 -5 -1 -10 -10 -10 -9 0 -13 5 -10 10 3 6 8 10 10 10 2 0 7 -4 10
-10z m960 -10 c3 -6 -5 -10 -19 -10 -14 0 -28 5 -31 10 -3 6 5 10 19 10 14 0
28 -4 31 -10z m100 -10 c3 -5 2 -10 -4 -10 -5 0 -13 5 -16 10 -3 6 -2 10 4 10
5 0 13 -4 16 -10z m124 -16 c3 -16 1 -17 -13 -5 -19 16 -21 34 -3 29 6 -3 14
-13 16 -24z m-1205 -9 c-6 -16 -24 -21 -24 -7 0 11 11 22 21 22 5 0 6 -7 3
-15z m974 3 c9 -9 15 -9 24 0 20 20 41 15 35 -8 -3 -11 -1 -23 4 -26 12 -7 11
-24 -1 -24 -5 0 -10 7 -10 16 0 11 -6 14 -22 8 -13 -3 -24 -11 -26 -15 -7 -18
-22 -8 -22 14 -1 21 -2 20 -16 -5 -17 -33 -29 -35 -44 -9 -14 27 -13 31 10 31
11 0 20 7 20 15 0 18 31 20 48 3z m302 8 c0 -2 -7 -9 -15 -16 -12 -10 -15 -10
-15 4 0 9 7 16 15 16 8 0 15 -2 15 -4z m-1225 -16 c3 -5 -3 -10 -15 -10 -12 0
-18 5 -15 10 3 6 10 10 15 10 5 0 12 -4 15 -10z m1055 -21 c0 -5 -11 -9 -25
-9 -27 0 -32 9 -13 28 12 12 38 -1 38 -19z m-1070 -9 c0 -5 -2 -10 -4 -10 -3
0 -8 5 -11 10 -3 6 -1 10 4 10 6 0 11 -4 11 -10z m1176 -7 c19 -25 18 -67 -1
-59 -9 3 -15 0 -15 -9 0 -18 -16 -20 -26 -4 -3 6 0 15 7 20 8 5 10 9 5 9 -5 0
-3 6 3 14 6 7 9 21 5 30 -8 21 5 21 22 -1z m-58 -5 c-3 -7 -15 -15 -29 -16
-13 -2 -30 -9 -36 -14 -9 -7 -13 -7 -13 0 0 12 47 41 68 42 8 0 12 -6 10 -12z
m-143 -17 c3 -5 1 -12 -5 -16 -5 -3 -10 1 -10 9 0 18 6 21 15 7z m-895 -21 c0
-5 -5 -10 -11 -10 -5 0 -7 5 -4 10 3 6 8 10 11 10 2 0 4 -4 4 -10z m110 -5 c0
-9 -6 -12 -15 -9 -8 4 -12 10 -9 15 8 14 24 10 24 -6z m833 -12 c-7 -3 -10
-10 -7 -18 3 -7 1 -16 -5 -19 -13 -8 -34 31 -27 50 5 12 10 13 28 3 13 -7 18
-14 11 -16z m67 6 c0 -4 -7 -6 -15 -3 -8 4 -15 10 -15 15 0 4 7 6 15 3 8 -4
15 -10 15 -15z m-1235 -7 c-3 -3 -11 0 -18 7 -9 10 -8 11 6 5 10 -3 15 -9 12
-12z m1083 -4 c-5 -15 -88 -24 -88 -10 0 16 13 22 53 22 26 0 37 -4 35 -12z
m-708 -28 c0 -16 -4 -30 -10 -30 -5 0 -10 14 -10 30 0 17 5 30 10 30 6 0 10
-13 10 -30z m970 10 c0 -5 -7 -10 -15 -10 -8 0 -15 5 -15 10 0 6 7 10 15 10 8
0 15 -4 15 -10z m-230 -20 c0 -5 -5 -10 -11 -10 -5 0 -7 5 -4 10 3 6 8 10 11
10 2 0 4 -4 4 -10z m-900 -10 c0 -5 -5 -10 -11 -10 -5 0 -7 5 -4 10 3 6 8 10
11 10 2 0 4 -4 4 -10z m-106 -41 c-3 -5 -10 -7 -15 -3 -5 3 -7 10 -3 15 3 5
10 7 15 3 5 -3 7 -10 3 -15z m1262 -6 c11 -12 13 -18 5 -21 -13 -4 -41 16 -41
29 0 14 17 10 36 -8z m-1041 -3 c3 -5 -1 -10 -10 -10 -9 0 -13 5 -10 10 3 6 8
10 10 10 2 0 7 -4 10 -10z m-353 -35 c0 -5 -5 -11 -11 -13 -6 -2 -11 4 -11 13
0 9 5 15 11 13 6 -2 11 -8 11 -13z m1373 6 c3 -5 1 -12 -5 -16 -5 -3 -10 1
-10 9 0 18 6 21 15 7z m-1181 -36 c3 -10 -1 -15 -14 -15 -20 0 -33 13 -23 24
11 11 31 6 37 -9z m1211 -5 c3 -5 -1 -10 -10 -10 -9 0 -13 5 -10 10 3 6 8 10
10 10 2 0 7 -4 10 -10z m-1305 -10 c0 -5 -5 -10 -11 -10 -5 0 -7 5 -4 10 3 6
8 10 11 10 2 0 4 -4 4 -10z m-50 -15 c0 -8 -4 -15 -10 -15 -5 0 -10 7 -10 15
0 8 5 15 10 15 6 0 10 -7 10 -15z m197 4 c14 -14 -11 -59 -32 -59 -10 0 -11 8
-2 35 11 38 17 41 34 24z m37 -44 c-6 -16 -24 -21 -24 -7 0 11 11 22 21 22 5
0 6 -7 3 -15z m-104 -5 c0 -5 -4 -10 -9 -10 -6 0 -13 5 -16 10 -3 6 1 10 9 10
9 0 16 -4 16 -10z m-65 -30 c3 -5 -1 -10 -9 -10 -9 0 -16 5 -16 10 0 6 4 10 9
10 6 0 13 -4 16 -10z m1249 -96 c26 -10 18 -24 -14 -24 -19 0 -33 -7 -40 -20
-13 -24 -33 -27 -28 -3 2 12 36 40 65 52 1 1 8 -2 17 -5z m-534 -54 c0 -5 -4
-10 -9 -10 -6 0 -13 5 -16 10 -3 6 1 10 9 10 9 0 16 -4 16 -10z m208 -25 c-17
-16 -25 -31 -21 -41 3 -9 -6 -5 -22 10 -27 26 -28 27 -9 41 10 8 32 15 49 15
l30 0 -27 -25z m-333 0 c0 -5 -10 -11 -22 -13 -16 -2 -23 2 -23 13 0 11 7 15
23 13 12 -2 22 -7 22 -13z m461 -28 c7 -21 -4 -37 -14 -21 -4 6 -20 14 -37 19
-29 7 -30 7 -7 16 13 5 20 14 17 20 -4 6 2 5 14 -3 12 -7 24 -21 27 -31z
m-228 5 c-3 -20 9 -42 22 -42 5 0 7 7 3 16 -4 12 -1 15 13 12 10 -2 20 -11 22
-21 5 -23 -44 -23 -70 0 -20 17 -25 38 -7 27 8 -4 9 1 4 16 -5 16 -4 20 4 15
7 -4 11 -14 9 -23z m437 -11 c3 -5 0 -13 -5 -16 -13 -8 -52 24 -44 36 6 10 39
-5 49 -20z m-305 9 c0 -5 -5 -10 -11 -10 -5 0 -7 5 -4 10 3 6 8 10 11 10 2 0
4 -4 4 -10z m-640 -61 c0 -5 -7 -9 -15 -9 -15 0 -20 12 -9 23 8 8 24 -1 24
-14z m970 0 c0 -5 -4 -9 -10 -9 -5 0 -10 7 -10 16 0 8 5 12 10 9 6 -3 10 -10
10 -16z m-907 -4 c-6 -17 -25 -15 -31 3 -2 7 5 12 17 12 14 0 19 -5 14 -15z
m557 -15 c-19 -12 -70 -13 -70 -1 0 13 64 29 75 19 6 -6 5 -12 -5 -18z m170
20 c0 -5 -4 -10 -10 -10 -5 0 -10 5 -10 10 0 6 5 10 10 10 6 0 10 -4 10 -10z
m-114 -15 c-3 -9 0 -15 8 -15 7 0 25 -9 40 -21 26 -20 28 -21 47 -3 16 14 22
15 32 5 9 -11 9 -15 -1 -18 -7 -3 -17 -16 -22 -29 -10 -25 -53 -34 -65 -14 -3
6 1 10 10 10 25 0 1 35 -34 50 -19 8 -29 18 -28 31 1 10 5 19 10 19 5 0 7 -7
3 -15z m-446 -5 c0 -12 -28 -25 -36 -17 -9 9 6 27 22 27 8 0 14 -5 14 -10z
m100 -5 c0 -8 -7 -15 -15 -15 -8 0 -15 7 -15 15 0 8 7 15 15 15 8 0 15 -7 15
-15z m540 0 c7 -8 10 -15 6 -15 -3 0 -8 0 -11 0 -3 0 -5 3 -4 6 0 4 -5 11 -13
15 -8 5 -9 9 -2 9 6 0 17 -7 24 -15z m-778 -37 c-9 -9 -15 -9 -24 0 -9 9 -7
12 12 12 19 0 21 -3 12 -12z m565 -34 c-4 -4 -30 -8 -58 -8 -36 -1 -55 -6 -64
-19 -15 -21 -25 -22 -25 -2 0 8 5 15 11 15 6 0 17 7 25 15 18 18 60 20 70 4 5
-8 10 -6 16 6 7 12 13 14 21 6 6 -6 8 -14 4 -17z m198 16 c-3 -5 -13 -10 -21
-10 -8 0 -12 5 -9 10 3 6 13 10 21 10 8 0 12 -4 9 -10z m-755 -10 c13 -8 13
-10 -2 -10 -9 0 -20 5 -23 10 -8 13 5 13 25 0z m300 6 c0 -3 -4 -8 -10 -11 -5
-3 -10 -1 -10 4 0 6 5 11 10 11 6 0 10 -2 10 -4z m-135 -36 c-3 -5 -12 -10
-18 -10 -7 0 -6 4 3 10 19 12 23 12 15 0z m325 -5 c0 -8 -4 -15 -10 -15 -5 0
-10 7 -10 15 0 8 5 15 10 15 6 0 10 -7 10 -15z m259 -14 c7 -13 6 -18 -4 -18
-8 0 -12 4 -9 8 2 4 0 10 -6 14 -5 3 -10 11 -10 16 0 14 18 2 29 -20z m-859
-22 c0 -5 -4 -9 -10 -9 -5 0 -10 7 -10 16 0 8 5 12 10 9 6 -3 10 -10 10 -16z
m564 2 c6 -9 -43 -35 -52 -27 -2 3 -2 12 1 21 7 16 42 21 51 6z m81 0 c8 -14
-10 -22 -30 -15 -13 5 -14 8 -3 15 17 11 26 11 33 0z m63 -8 c2 -8 -5 -13 -17
-13 -12 0 -21 6 -21 16 0 18 31 15 38 -3z m106 11 c9 -3 16 -13 16 -21 0 -21
-44 -12 -48 10 -4 18 6 21 32 11z m-47 -40 c-9 -9 -28 6 -21 18 4 6 10 6 17
-1 6 -6 8 -13 4 -17z m-732 -4 c3 -5 1 -10 -4 -10 -6 0 -11 5 -11 10 0 6 2 10
4 10 3 0 8 -4 11 -10z m130 -10 c-3 -5 -11 -10 -16 -10 -6 0 -7 5 -4 10 3 6
11 10 16 10 6 0 7 -4 4 -10z m735 -10 c0 -13 -20 -13 -40 0 -12 8 -9 10 13 10
15 0 27 -4 27 -10z"/>
<path d="M2570 3510 l0 -210 108 0 c65 0 128 -6 155 -14 26 -8 47 -12 47 -10
0 3 25 -14 55 -36 30 -22 59 -40 65 -40 5 0 9 -3 9 -7 -3 -20 2 -27 10 -14 5
7 14 10 20 7 15 -9 14 -36 -1 -36 -7 0 -5 -6 4 -17 9 -10 19 -28 22 -40 6 -17
15 -23 37 -23 16 0 29 5 29 12 0 9 3 9 11 1 10 -10 51 -5 92 12 26 11 21 35
-7 35 -13 0 -30 2 -38 3 -7 2 -10 2 -5 0 11 -7 9 -33 -3 -33 -5 0 -10 6 -10
14 0 8 -16 31 -35 52 -19 20 -35 32 -35 26 0 -6 -7 -9 -16 -5 -14 5 -15 8 -3
17 8 7 13 24 11 44 -5 50 30 99 80 113 22 6 51 8 64 5 24 -6 86 -64 115 -107
20 -28 36 -20 19 10 -7 14 -7 21 0 21 19 0 10 29 -21 65 -33 37 -34 51 -2 41
42 -15 93 -86 93 -130 0 -10 6 -13 15 -10 28 11 15 -9 -40 -62 -30 -30 -55
-61 -55 -69 0 -22 -34 -87 -57 -107 -30 -27 -130 -68 -168 -68 l-34 0 -1 -705
0 -705 240 0 239 0 1 654 0 654 -23 7 -22 8 23 4 c21 4 23 9 21 61 -1 31 1 64
4 72 2 8 9 31 14 51 15 54 69 129 124 172 73 57 139 77 256 77 64 1 104 5 115
13 15 12 17 37 16 210 l0 197 -114 0 c-73 0 -122 -4 -135 -12 -17 -10 -23 -10
-26 0 -4 9 -140 12 -634 12 l-629 0 0 -210z m1440 146 c0 -11 -19 -15 -25 -6
-3 5 1 10 9 10 9 0 16 -2 16 -4z m-520 -56 c0 -5 -2 -10 -4 -10 -3 0 -8 5 -11
10 -3 6 -1 10 4 10 6 0 11 -4 11 -10z m-227 -47 c-7 -2 -19 -2 -25 0 -7 3 -2
5 12 5 14 0 19 -2 13 -5z m35 -15 c-2 -6 -10 -14 -16 -16 -7 -2 -10 2 -6 12 7
18 28 22 22 4z m277 2 c-3 -5 -10 -10 -16 -10 -5 0 -9 5 -9 10 0 6 7 10 16 10
8 0 12 -4 9 -10z m13 -32 c-6 -18 -28 -21 -28 -4 0 9 7 16 16 16 9 0 14 -5 12
-12z m-43 -8 c3 -5 1 -10 -4 -10 -6 0 -11 5 -11 10 0 6 2 10 4 10 3 0 8 -4 11
-10z m-453 -52 c-7 -7 -12 -8 -12 -2 0 6 3 14 7 17 3 4 9 5 12 2 2 -3 -1 -11
-7 -17z m-92 -2 c0 -3 -4 -8 -10 -11 -5 -3 -10 -1 -10 4 0 6 5 11 10 11 6 0
10 -2 10 -4z m660 -25 c0 -11 -4 -22 -9 -25 -11 -7 -20 14 -13 32 7 19 22 14
22 -7z m-150 -11 c0 -11 -4 -20 -10 -20 -5 0 -10 9 -10 20 0 11 5 20 10 20 6
0 10 -9 10 -20z m-260 -4 c0 -2 -7 -6 -15 -10 -8 -3 -15 -1 -15 4 0 6 7 10 15
10 8 0 15 -2 15 -4z m460 -16 c0 -5 -5 -10 -11 -10 -5 0 -7 5 -4 10 3 6 8 10
11 10 2 0 4 -4 4 -10z m-760 -20 c0 -5 -4 -10 -10 -10 -5 0 -10 5 -10 10 0 6
5 10 10 10 6 0 10 -4 10 -10z m1065 -11 c-4 -5 -13 -9 -22 -9 -13 0 -13 3 -3
15 13 15 35 11 25 -6z m-480 -9 c-3 -5 -10 -10 -16 -10 -5 0 -9 5 -9 10 0 6 7
10 16 10 8 0 12 -4 9 -10z m-795 -21 c0 -6 -4 -7 -10 -4 -5 3 -10 11 -10 16 0
6 5 7 10 4 6 -3 10 -11 10 -16z m280 12 c0 -6 -4 -12 -8 -15 -5 -3 -9 1 -9 9
0 8 4 15 9 15 4 0 8 -4 8 -9z m-130 -31 c0 -5 -2 -10 -4 -10 -3 0 -8 5 -11 10
-3 6 -1 10 4 10 6 0 11 -4 11 -10z m195 0 c3 -5 2 -10 -4 -10 -5 0 -13 5 -16
10 -3 6 -2 10 4 10 5 0 13 -4 16 -10z m655 -30 c0 -13 -7 -13 -31 1 -11 5 -17
14 -14 20 7 11 45 -7 45 -21z m-770 16 c0 -3 -4 -8 -10 -11 -5 -3 -10 -1 -10
4 0 6 5 11 10 11 6 0 10 -2 10 -4z m544 -11 c-4 -8 -1 -15 5 -15 6 0 11 -5 11
-12 0 -6 -8 -3 -20 7 -19 17 -19 35 0 35 5 0 7 -7 4 -15z m92 -56 c8 -14 -10
-11 -32 6 -18 13 -18 14 4 8 12 -3 25 -9 28 -14z m81 -4 c3 -9 3 -19 -1 -22
-8 -9 -37 18 -30 28 8 14 24 11 31 -6z m-197 -15 c0 -5 -9 -14 -20 -20 -15 -8
-20 -8 -20 3 0 8 3 17 7 20 10 10 33 8 33 -3z m80 -10 c0 -5 -5 -10 -11 -10
-5 0 -7 5 -4 10 3 6 8 10 11 10 2 0 4 -4 4 -10z m27 -70 c3 -23 3 -23 -17 -5
-11 10 -17 22 -14 27 10 15 27 3 31 -22z m-487 0 c0 -5 -4 -10 -10 -10 -5 0
-10 5 -10 10 0 6 5 10 10 10 6 0 10 -4 10 -10z m289 -16 c-13 -16 -29 -10 -29
11 0 8 7 11 20 8 16 -4 18 -8 9 -19z m76 -74 c-5 -8 -11 -8 -17 -2 -6 6 -7 16
-3 22 5 8 11 8 17 2 6 -6 7 -16 3 -22z m87 -2 c-9 -9 -12 -7 -12 12 0 19 3 21
12 12 9 -9 9 -15 0 -24z m-132 2 c0 -5 -2 -10 -4 -10 -3 0 -8 5 -11 10 -3 6
-1 10 4 10 6 0 11 -4 11 -10z m-20 -20 c0 -5 -7 -10 -16 -10 -8 0 -12 5 -9 10
3 6 10 10 16 10 5 0 9 -4 9 -10z m-154 -117 c-4 -4 -11 -1 -16 7 -16 25 -11
35 7 17 9 -9 13 -20 9 -24z m306 25 c-9 -9 -15 -9 -24 0 -9 9 -7 12 12 12 19
0 21 -3 12 -12z m-345 -164 c-3 -3 -12 -4 -19 -1 -8 3 -5 6 6 6 11 1 17 -2 13
-5z m325 -9 c0 -5 -5 -11 -11 -13 -6 -2 -11 4 -11 13 0 9 5 15 11 13 6 -2 11
-8 11 -13z m-382 -51 c0 -8 -4 -12 -10 -9 -5 3 -10 10 -10 16 0 5 5 9 10 9 6
0 10 -7 10 -16z m-28 -116 c-7 -7 -12 -8 -12 -2 0 6 3 14 7 17 3 4 9 5 12 2 2
-3 -1 -11 -7 -17z m8 -38 c0 -5 -4 -10 -10 -10 -5 0 -10 5 -10 10 0 6 5 10 10
10 6 0 10 -4 10 -10z m400 -200 c0 -5 -4 -10 -10 -10 -5 0 -10 5 -10 10 0 6 5
10 10 10 6 0 10 -4 10 -10z"/>
<path d="M3184 3259 c-3 -6 -2 -15 4 -21 6 -6 11 -2 15 11 5 22 -7 29 -19 10z"/>
<path d="M3226 3234 c-9 -23 -8 -24 14 -24 23 0 26 13 6 29 -11 9 -15 8 -20
-5z"/>
<path d="M4325 2979 c-37 -33 -44 -49 -21 -49 8 0 18 -5 22 -11 5 -8 -3 -10
-24 -7 -25 3 -32 0 -36 -16 -10 -38 -6 -96 9 -132 16 -39 130 -195 151 -207 8
-4 14 -17 14 -28 0 -11 4 -18 9 -14 11 6 25 -30 17 -44 -3 -5 1 -30 9 -57 16
-53 12 -74 -5 -28 -34 93 -103 192 -152 218 -59 32 -121 0 -134 -70 -9 -50 19
-88 90 -120 53 -24 58 -28 38 -35 -34 -13 -27 -26 31 -59 55 -31 88 -76 101
-135 l6 -30 -17 31 c-59 103 -120 129 -159 68 -25 -38 -11 -68 39 -88 24 -9
56 -29 71 -45 27 -28 78 -139 71 -152 -3 -3 -27 -9 -53 -11 -155 -15 -307
-156 -341 -316 -22 -106 -26 -102 92 -102 69 0 108 4 116 12 11 10 13 10 7 1
-6 -10 60 -13 315 -13 l322 0 -6 64 c-10 109 -79 222 -174 287 -52 36 -143 69
-190 69 l-33 0 0 97 c0 97 7 133 41 210 14 33 40 59 114 113 96 72 125 108
125 155 0 32 -45 79 -66 71 -9 -3 -20 -6 -25 -6 -5 0 -9 -9 -9 -21 0 -16 -4
-19 -19 -14 -15 4 -26 -3 -45 -32 -15 -21 -22 -39 -16 -41 5 -2 10 -11 10 -19
0 -12 -3 -13 -14 -4 -10 9 -15 8 -20 -4 -3 -8 -3 -22 0 -30 4 -8 1 -15 -5 -15
-15 0 -14 9 8 115 l18 90 -21 7 -21 6 22 7 c15 5 23 18 28 46 11 64 9 172 -4
211 -18 54 -81 88 -81 43 0 -8 -5 -17 -10 -20 -16 -10 -40 15 -40 41 0 29 -27
44 -79 44 -31 0 -49 -7 -76 -31z m-13 -141 c-7 -7 -12 -8 -12 -2 0 6 3 14 7
17 3 4 9 5 12 2 2 -3 -1 -11 -7 -17z m58 6 c0 -2 -7 -4 -15 -4 -8 0 -15 4 -15
10 0 5 7 7 15 4 8 -4 15 -8 15 -10z m120 7 c0 -6 -4 -13 -10 -16 -5 -3 -10 1
-10 9 0 9 5 16 10 16 6 0 10 -4 10 -9z m125 -41 c3 -5 -3 -10 -14 -10 -12 0
-21 5 -21 10 0 6 6 10 14 10 8 0 18 -4 21 -10z m-61 -59 c3 -5 -1 -14 -9 -21
-13 -10 -15 -9 -15 9 0 21 14 28 24 12z m-84 -31 c0 -5 -5 -10 -11 -10 -5 0
-7 5 -4 10 3 6 8 10 11 10 2 0 4 -4 4 -10z m-130 -20 c0 -5 -5 -10 -11 -10 -5
0 -7 5 -4 10 3 6 8 10 11 10 2 0 4 -4 4 -10z m207 -16 c3 -8 1 -20 -6 -27 -8
-8 -11 -8 -11 0 0 6 -3 18 -6 27 -3 9 -1 16 5 16 7 0 14 -7 18 -16z m28 -155
c11 -17 -1 -21 -15 -4 -8 9 -8 15 -2 15 6 0 14 -5 17 -11z m0 -149 c3 -5 1
-10 -4 -10 -6 0 -11 5 -11 10 0 6 2 10 4 10 3 0 8 -4 11 -10z m-163 -222 c-15
-15 -24 -6 -16 16 5 12 10 14 17 7 8 -8 8 -14 -1 -23z m78 -63 c0 -8 -4 -15
-10 -15 -5 0 -10 7 -10 15 0 8 5 15 10 15 6 0 10 -7 10 -15z m-70 -435 c0 -5
-5 -10 -11 -10 -5 0 -7 5 -4 10 3 6 8 10 11 10 2 0 4 -4 4 -10z"/>
<path d="M1432 2782 c-8 -5 -10 -16 -6 -27 6 -14 4 -17 -9 -12 -21 8 -22 -12
-3 -39 15 -19 15 -19 30 1 14 18 15 18 16 3 0 -37 40 -8 40 28 0 13 -10 30
-22 38 -26 18 -28 19 -46 8z"/>
<path d="M6180 2400 c0 -5 5 -10 10 -10 6 0 10 5 10 10 0 6 -4 10 -10 10 -5 0
-10 -4 -10 -10z"/>
<path d="M6222 2254 c-12 -8 -22 -22 -22 -30 0 -18 10 -18 24 2 11 14 16 14
56 -2 56 -21 72 -34 66 -50 -3 -7 -1 -25 4 -41 l8 -28 1 32 c1 38 17 52 26 23
3 -11 11 -20 16 -20 5 0 9 -6 9 -14 0 -8 12 -16 27 -18 22 -2 29 -10 38 -44 6
-25 15 -39 23 -37 14 5 16 39 2 48 -5 3 -10 11 -10 16 0 12 43 1 48 -12 2 -5
8 -7 13 -4 4 3 11 -6 15 -21 4 -16 2 -29 -6 -34 -8 -5 -9 -10 -2 -14 14 -8 19
1 27 47 5 25 4 37 -4 37 -7 0 -9 5 -6 10 3 6 15 10 26 10 25 0 24 4 -6 35 -32
31 -37 31 -29 1 3 -13 1 -27 -5 -31 -6 -3 -9 -11 -6 -16 4 -5 2 -9 -4 -9 -15
0 -25 21 -14 29 7 4 7 15 2 29 -10 27 -29 21 -22 -7 3 -10 0 -22 -7 -26 -7 -4
-14 2 -17 15 -4 16 -8 18 -14 9 -15 -26 -20 -1 -8 41 11 37 11 43 -4 52 -9 5
-17 16 -17 23 0 18 -9 19 -46 5 -23 -9 -26 -15 -20 -40 6 -30 0 -35 -28 -24
-18 7 -22 34 -5 34 5 0 7 5 3 11 -3 6 -15 9 -25 6 -11 -3 -17 -2 -14 3 2 4 -9
10 -26 14 -42 8 -41 8 -67 -10z m203 -24 c3 -5 13 -6 21 -3 12 4 15 1 12 -13
-4 -23 -38 -32 -38 -10 0 9 -4 16 -10 16 -5 0 -10 5 -10 10 0 13 17 13 25 0z
m22 -92 c-3 -8 -6 -5 -6 6 -1 11 2 17 5 13 3 -3 4 -12 1 -19z"/>
<path d="M6336 2025 c-20 -31 -20 -41 0 -49 29 -11 34 -6 34 34 0 46 -11 51
-34 15z"/>
<path d="M2155 1946 c-70 -22 -125 -56 -175 -107 -55 -56 -104 -148 -93 -175
4 -11 2 -15 -4 -11 -11 7 -23 -36 -23 -84 l0 -29 430 0 430 1 0 42 c0 115 -91
262 -200 324 -70 39 -130 53 -229 52 -53 0 -114 -6 -136 -13z m-130 -336 c3
-5 1 -10 -4 -10 -6 0 -11 5 -11 10 0 6 2 10 4 10 3 0 8 -4 11 -10z m175 -44
c0 -3 -4 -8 -10 -11 -5 -3 -10 -1 -10 4 0 6 5 11 10 11 6 0 10 -2 10 -4z"/>
<path d="M10 1045 c0 -69 3 -85 15 -85 8 0 15 -4 15 -10 0 -5 -5 -10 -12 -10
-9 0 -9 -3 0 -12 19 -19 15 -58 -5 -59 -12 0 -8 -4 10 -11 15 -5 27 -13 27
-18 0 -5 10 -10 22 -12 21 -3 21 -3 -4 -33 l-26 -30 -11 27 c-15 40 -31 44
-31 9 0 -24 4 -31 20 -31 11 0 25 -11 32 -25 13 -25 14 -25 31 -5 11 13 13 20
4 20 -6 0 -4 5 5 11 10 5 38 8 63 5 44 -5 45 -5 45 22 0 15 7 40 15 55 l14 28
-64 -5 c-50 -3 -65 -1 -65 9 0 8 4 17 10 20 5 3 9 23 9 43 -1 23 -3 29 -6 15
-5 -28 -20 -29 -53 -3 l-25 20 23 0 c15 0 21 4 16 12 -5 8 -2 9 10 5 13 -5 17
-3 13 5 -3 10 21 13 107 13 l111 0 -3 28 c-4 31 5 35 23 10 11 -14 12 -12 11
14 -1 21 -4 28 -12 22 -16 -13 -25 1 -13 22 8 17 6 19 -19 19 -15 0 -33 -5
-40 -12 -8 -8 -12 -8 -12 -1 0 7 -37 11 -105 11 -97 0 -105 -2 -105 -19 0 -10
-5 -19 -11 -19 -6 0 -8 9 -4 20 5 14 2 20 -9 20 -13 0 -16 -14 -16 -85z m200
39 c0 -8 -7 -14 -15 -14 -15 0 -21 21 -9 33 10 9 24 -2 24 -19z m32 -16 c-7
-7 -12 -8 -12 -2 0 14 12 26 19 19 2 -3 -1 -11 -7 -17z m-182 -23 c0 -8 -4
-15 -9 -15 -13 0 -22 16 -14 24 11 11 23 6 23 -9z m116 -22 c-10 -10 -19 5
-10 18 6 11 8 11 12 0 2 -7 1 -15 -2 -18z m94 17 c0 -5 -5 -10 -11 -10 -5 0
-7 5 -4 10 3 6 8 10 11 10 2 0 4 -4 4 -10z m-190 -140 c0 -11 -7 -20 -15 -20
-15 0 -21 21 -8 33 12 13 23 7 23 -13z m98 -89 c3 -10 0 -12 -13 -7 -10 3 -24
1 -32 -5 -19 -16 -29 -3 -13 16 16 19 51 16 58 -4z"/>
<path d="M720 1116 c0 -13 -5 -14 -26 -6 -23 9 -25 8 -19 -10 3 -11 2 -20 -3
-20 -5 0 -21 -39 -35 -87 -37 -123 -40 -140 -28 -147 17 -11 13 -23 -7 -28
-22 -6 -57 -115 -42 -133 6 -7 3 -17 -10 -28 -21 -18 -27 -47 -9 -47 6 0 8 -9
4 -21 -5 -15 -4 -19 4 -15 15 10 14 -17 -1 -32 -9 -9 -6 -12 15 -12 17 0 27 5
27 14 0 8 11 24 25 34 15 12 21 23 15 27 -5 3 -17 20 -26 36 -15 29 -15 30 5
20 11 -6 23 -16 27 -22 4 -7 9 -8 13 -1 3 6 46 12 96 13 l89 3 7 -32 c3 -17
12 -39 19 -47 7 -8 10 -22 6 -30 -4 -12 3 -15 33 -13 26 1 38 5 35 13 -3 6 2
18 11 25 21 17 19 27 -10 56 -28 28 -31 42 -11 50 15 6 11 39 -7 62 -5 7 -7
15 -4 18 3 3 -3 29 -12 57 -14 40 -24 54 -49 64 l-31 13 17 -30 c14 -24 14
-32 4 -42 -10 -10 -14 -8 -18 10 -4 12 -10 19 -15 16 -11 -7 -11 -4 2 34 11
31 11 32 41 16 28 -14 30 -14 25 -1 -3 9 -11 35 -17 59 -6 24 -18 48 -26 55
-9 7 -11 14 -5 17 6 4 6 17 -1 37 -7 22 -14 27 -21 20 -19 -19 -28 -12 -25 17
3 24 -1 27 -29 30 -24 2 -33 -1 -33 -12z m-52 -162 c-10 -10 -28 6 -28 24 0
15 1 15 17 -1 9 -9 14 -19 11 -23z m101 -74 c12 -47 24 -93 27 -102 4 -15 -1
-18 -25 -18 -17 0 -31 -4 -31 -9 0 -13 -36 -20 -51 -10 -8 5 -9 9 -3 9 18 0
-1 79 -22 95 -18 13 -18 14 -1 20 9 4 24 5 32 1 10 -4 15 1 15 14 0 11 4 28 9
38 5 9 12 26 16 36 8 26 10 22 34 -74z m-115 -56 c3 -8 2 -12 -4 -9 -6 3 -10
10 -10 16 0 14 7 11 14 -7z m236 -23 c0 -11 -4 -23 -10 -26 -5 -3 -10 -15 -10
-27 0 -15 -5 -19 -19 -15 -23 6 -51 -10 -51 -28 0 -21 -13 -18 -28 5 -16 25
-8 40 21 40 13 0 33 14 50 35 31 39 47 44 47 16z m-290 -69 c0 -7 -4 -10 -10
-7 -5 3 -10 16 -10 28 0 18 2 19 10 7 5 -8 10 -21 10 -28z m30 -8 c0 -8 -4
-12 -10 -9 -5 3 -10 10 -10 16 0 5 5 9 10 9 6 0 10 -7 10 -16z m70 -33 c0 -19
-36 -36 -45 -22 -7 12 25 52 36 46 5 -4 9 -14 9 -24z m40 -4 c0 -18 -2 -19
-10 -7 -13 20 -13 43 0 35 6 -3 10 -16 10 -28z m134 -23 c3 -9 6 -23 6 -32 -1
-15 -3 -14 -15 2 -17 22 -20 46 -6 46 5 0 12 -7 15 -16z"/>
<path d="M1143 1124 c-15 -7 -18 -90 -3 -99 6 -3 10 -13 10 -21 0 -8 -4 -12
-10 -9 -7 4 -10 -51 -10 -159 0 -122 3 -166 13 -169 8 -4 9 -8 1 -14 -6 -4
-11 -22 -12 -39 0 -24 5 -34 24 -43 14 -6 27 -18 30 -26 4 -9 19 -15 35 -15
26 0 29 4 29 30 0 17 -7 42 -16 55 -15 23 -15 25 0 25 12 0 16 10 16 46 0 25
-3 43 -7 41 -5 -2 -18 9 -31 24 -22 27 -22 29 -5 29 10 0 28 -7 40 -15 21 -14
22 -14 18 7 -3 12 0 27 6 34 8 10 6 19 -5 36 -9 12 -16 39 -16 59 0 21 -6 40
-12 42 -10 4 -10 6 0 6 6 1 12 14 12 30 0 34 12 38 93 33 l57 -4 0 -69 c0 -39
4 -69 10 -69 6 0 10 -4 10 -9 0 -5 -26 -7 -57 -4 l-58 5 -1 -57 -2 -58 64 6
c63 5 94 -5 54 -18 -17 -5 -19 -14 -17 -61 1 -30 6 -54 12 -54 5 0 4 -5 -3
-12 -16 -16 -15 -38 2 -38 8 0 18 -9 21 -21 6 -17 12 -19 33 -14 15 4 29 11
30 16 2 5 9 6 15 2 8 -4 7 -1 -1 9 -8 10 -21 14 -35 10 -19 -5 -20 -4 -9 11 8
9 22 19 33 22 15 5 19 16 19 50 0 24 -4 47 -10 50 -5 3 -10 15 -10 26 0 10 5
19 10 19 6 0 10 7 10 17 0 14 -2 14 -20 -2 -22 -20 -26 -14 -10 16 9 16 7 21
-14 31 -32 14 -24 28 15 28 31 0 41 26 14 36 -8 4 -15 11 -15 16 0 6 7 8 15 4
11 -4 15 2 15 24 0 17 -5 30 -12 30 -9 0 -9 3 0 12 16 16 15 55 0 62 -10 5
-10 7 0 12 19 9 14 49 -9 70 -19 17 -39 19 -183 21 -88 1 -167 0 -173 -3z
m244 -30 c-3 -3 -12 -4 -19 -1 -8 3 -5 6 6 6 11 1 17 -2 13 -5z m-132 -14 c3
-5 1 -10 -4 -10 -6 0 -11 5 -11 10 0 6 2 10 4 10 3 0 8 -4 11 -10z m-15 -51
c0 -5 -4 -9 -10 -9 -5 0 -10 7 -10 16 0 8 5 12 10 9 6 -3 10 -10 10 -16z m100
11 c0 -5 -5 -10 -11 -10 -5 0 -7 5 -4 10 3 6 8 10 11 10 2 0 4 -4 4 -10z
m-157 -140 c7 0 6 -4 -3 -10 -13 -8 -12 -11 4 -23 19 -14 19 -15 -2 -26 -30
-16 -35 -14 -28 13 3 14 2 28 -4 31 -16 10 -11 28 6 21 9 -3 21 -6 27 -6z
m287 -20 c0 -5 -4 -10 -10 -10 -5 0 -10 5 -10 10 0 6 5 10 10 10 6 0 10 -4 10
-10z m-90 -50 c0 -5 -4 -10 -9 -10 -6 0 -13 5 -16 10 -3 6 1 10 9 10 9 0 16
-4 16 -10z m60 -40 c0 -5 -5 -10 -11 -10 -5 0 -7 5 -4 10 3 6 8 10 11 10 2 0
4 -4 4 -10z m45 -90 c3 -5 -1 -10 -9 -10 -9 0 -16 5 -16 10 0 6 4 10 9 10 6 0
13 -4 16 -10z m-265 -10 c0 -5 -9 -10 -20 -10 -11 0 -20 5 -20 10 0 6 9 10 20
10 11 0 20 -4 20 -10z m278 -38 c2 -7 -2 -10 -12 -6 -9 3 -16 11 -16 16 0 13
23 5 28 -10z m-323 -32 c3 -5 -1 -10 -10 -10 -9 0 -13 5 -10 10 3 6 8 10 10
10 2 0 7 -4 10 -10z"/>
<path d="M1677 1124 c-9 -9 -9 -98 0 -107 3 -4 12 -2 19 4 8 7 14 7 19 -1 3
-5 26 -10 51 -10 l44 0 0 -60 c0 -33 6 -69 12 -80 10 -16 10 -24 -1 -41 -11
-18 -11 -23 1 -31 10 -7 10 -11 1 -15 -19 -7 -16 -89 4 -120 16 -24 16 -26 -3
-40 -13 -9 -15 -16 -7 -21 6 -4 15 -20 18 -35 6 -22 4 -26 -9 -21 -9 3 -16 1
-16 -5 0 -7 23 -11 60 -11 l59 0 0 120 c0 88 -3 120 -12 120 -8 0 -8 3 2 9 10
6 12 32 11 102 -4 141 -10 129 70 129 l70 0 0 59 0 59 -193 1 c-106 1 -196 -1
-200 -5z m206 -63 c33 -21 23 -36 -13 -18 -23 12 -39 37 -23 37 4 0 21 -9 36
-19z m87 -1 c0 -5 -2 -10 -4 -10 -3 0 -8 5 -11 10 -3 6 -1 10 4 10 6 0 11 -4
11 -10z m-160 -7 c-1 -18 -18 -35 -24 -24 -4 6 -4 16 -1 21 7 12 25 13 25 3z
m110 -53 c0 -5 -4 -10 -10 -10 -5 0 -10 5 -10 10 0 6 5 10 10 10 6 0 10 -4 10
-10z m-53 -47 c-17 -18 -22 -8 -11 22 5 12 10 13 17 6 8 -8 6 -16 -6 -28z m-2
-43 c3 -5 -1 -10 -9 -10 -8 0 -18 5 -21 10 -3 6 1 10 9 10 8 0 18 -4 21 -10z
m35 -140 c0 -5 -2 -10 -4 -10 -3 0 -8 5 -11 10 -3 6 -1 10 4 10 6 0 11 -4 11
-10z m-50 -40 c0 -5 -7 -7 -15 -4 -8 4 -15 8 -15 10 0 2 7 4 15 4 8 0 15 -4
15 -10z m50 -25 c0 -17 -2 -18 -24 -9 -23 9 -20 24 4 24 11 0 20 -7 20 -15z
m15 -34 c3 -5 1 -12 -4 -15 -5 -3 -11 1 -15 9 -6 16 9 21 19 6z m4 -57 c8 -7
-32 -44 -40 -38 -5 3 -9 16 -9 30 0 22 3 24 23 18 12 -3 24 -8 26 -10z"/>
<path d="M2230 1036 c0 -81 2 -94 15 -90 8 4 15 1 15 -5 0 -7 -7 -14 -15 -17
-17 -7 -22 -99 -5 -109 6 -3 10 -13 10 -21 0 -8 -4 -12 -10 -9 -6 4 -10 -33
-10 -104 0 -90 3 -111 14 -111 11 0 13 7 6 30 -10 36 -4 38 25 6 16 -17 21
-32 18 -50 -4 -21 -1 -26 14 -26 19 0 43 17 43 32 0 4 -6 5 -14 2 -15 -6 -28
19 -20 40 3 8 12 17 20 20 16 6 19 46 4 46 -5 0 -10 -4 -10 -10 0 -5 -8 -10
-19 -10 -21 0 -71 36 -71 52 0 6 8 4 18 -5 42 -38 98 -9 90 46 -3 24 -27 28
-81 14 -22 -6 -28 -5 -25 5 4 9 31 13 94 14 136 2 132 1 108 18 -25 19 -11 32
20 18 13 -6 27 -8 30 -5 13 13 5 32 -16 39 -22 7 -22 7 -3 14 24 8 38 -4 53
-47 9 -27 8 -33 -3 -33 -12 0 -14 -14 -12 -62 l2 -63 35 -3 c46 -4 59 -18 35
-35 -12 -9 -16 -21 -12 -36 3 -11 1 -21 -4 -21 -5 0 -9 9 -9 19 0 20 -25 51
-41 51 -5 0 -9 -23 -9 -51 0 -45 2 -50 15 -39 12 10 19 10 27 2 7 -7 27 -12
45 -12 29 0 33 3 33 28 0 15 -5 33 -12 40 -9 9 -9 12 0 12 18 0 15 21 -5 36
-10 7 -14 16 -10 20 4 5 12 2 17 -6 7 -11 10 -7 10 17 0 25 -4 31 -15 27 -8
-4 -15 -2 -15 4 0 5 7 12 15 16 20 7 22 181 3 189 -10 4 -10 8 -1 14 7 5 11
40 10 103 l-2 95 -57 3 -58 3 0 -94 c0 -61 4 -98 13 -106 10 -11 10 -14 0 -18
-7 -3 -13 -11 -13 -19 0 -10 -14 -14 -52 -14 -38 0 -49 -3 -38 -10 12 -8 11
-10 -7 -10 -12 0 -23 6 -26 13 -4 12 -13 10 -80 -18 -15 -6 -18 -4 -15 11 2
11 14 21 28 24 25 5 25 6 25 120 l0 115 -57 3 -58 3 0 -95z m360 -62 c0 -8 -4
-14 -10 -14 -5 0 -10 9 -10 21 0 11 5 17 10 14 6 -3 10 -13 10 -21z m-270 6
c0 -5 -2 -10 -4 -10 -3 0 -8 5 -11 10 -3 6 -1 10 4 10 6 0 11 -4 11 -10z m292
-32 c-7 -7 -12 -23 -12 -36 0 -13 -4 -20 -10 -17 -22 14 -3 65 24 65 6 0 5 -5
-2 -12z m-285 -14 c2 -6 -3 -11 -12 -11 -8 0 -15 7 -15 15 0 15 22 12 27 -4z
m63 -83 c0 -17 -20 -23 -48 -16 -20 5 -23 8 -11 16 19 12 59 12 59 0z m188
-33 c13 -13 16 -48 4 -48 -4 0 -16 14 -25 30 -14 23 -15 30 -5 30 8 0 19 -5
26 -12z m-3 -60 c27 -12 34 -28 11 -28 -17 0 -66 39 -49 40 7 0 24 -5 38 -12z
m-250 -38 c-17 -19 -35 -19 -35 2 0 5 6 8 14 5 8 -3 17 1 20 10 4 9 9 13 13 9
3 -3 -2 -15 -12 -26z m250 -20 c0 -8 -8 -16 -17 -18 -13 -2 -18 3 -18 18 0 15
5 20 18 18 9 -2 17 -10 17 -18z m-275 -70 c0 -5 -4 -10 -10 -10 -5 0 -10 5
-10 10 0 6 5 10 10 10 6 0 10 -4 10 -10z m305 -70 c3 -5 1 -10 -4 -10 -6 0
-11 5 -11 10 0 6 2 10 4 10 3 0 8 -4 11 -10z"/>
<path d="M3120 1115 c0 -8 6 -15 13 -15 9 0 9 -2 -1 -9 -8 -5 -12 -22 -10 -42
l3 -34 68 -3 67 -3 1 -142 c1 -78 1 -182 0 -231 -2 -95 3 -106 47 -106 20 0
21 3 12 21 -7 11 -9 24 -5 27 8 8 40 -12 40 -26 0 -6 3 -14 8 -18 4 -4 7 13 7
38 0 42 -2 46 -21 41 -16 -4 -20 -2 -17 8 3 8 13 13 22 13 14 -2 16 18 16 187
l0 188 68 3 67 3 3 57 3 57 -196 0 c-165 0 -195 -2 -195 -14z m120 -59 c0 -3
-4 -8 -10 -11 -5 -3 -10 -1 -10 4 0 6 5 11 10 11 6 0 10 -2 10 -4z m120 -25
c0 -5 -7 -11 -15 -15 -15 -5 -20 5 -8 17 9 10 23 9 23 -2z m-32 -184 c-5 -34
-28 -33 -28 2 0 23 4 29 16 24 8 -3 14 -15 12 -26z m-12 -204 c-11 -11 -19 6
-11 24 8 17 8 17 12 0 3 -10 2 -21 -1 -24z"/>
<path d="M3702 1120 c-39 -16 -43 -50 -40 -313 3 -230 4 -250 22 -262 15 -11
56 -14 183 -12 148 2 166 4 178 21 21 28 20 236 0 236 -8 0 -15 5 -15 10 0 6
7 10 15 10 12 0 15 15 15 79 0 54 -4 81 -12 84 -10 4 -10 6 0 6 20 2 15 95 -7
122 -18 23 -25 24 -168 26 -81 1 -158 -2 -171 -7z m138 -25 c0 -8 -4 -15 -10
-15 -5 0 -10 7 -10 15 0 8 5 15 10 15 6 0 10 -7 10 -15z m0 -55 c0 -5 -4 -10
-10 -10 -5 0 -10 5 -10 10 0 6 5 10 10 10 6 0 10 -4 10 -10z m-140 -4 c0 -3
-4 -8 -10 -11 -5 -3 -10 -1 -10 4 0 6 5 11 10 11 6 0 10 -2 10 -4z m266 -23
c-8 -8 -36 5 -36 17 0 7 6 7 21 0 11 -7 18 -14 15 -17z m-26 -31 c0 -15 6 -34
13 -41 10 -11 10 -14 0 -18 -16 -6 -18 -153 -3 -153 6 0 10 -5 10 -11 0 -5 -4
-7 -10 -4 -6 4 -10 -17 -10 -55 l0 -61 -77 3 -78 3 -3 94 c-2 74 -6 97 -20
109 -16 13 -16 13 1 8 17 -5 18 0 16 63 -1 37 1 73 5 79 4 8 36 12 82 12 l74
0 0 -28z m86 -59 c-11 -11 -19 6 -11 24 8 17 8 17 12 0 3 -10 2 -21 -1 -24z
m-26 -213 c0 -11 -42 -31 -49 -24 -2 2 2 10 9 19 14 17 40 20 40 5z m-244 -47
c-10 -10 -19 5 -10 18 6 11 8 11 12 0 2 -7 1 -15 -2 -18z m-26 -19 c0 -8 -4
-12 -10 -9 -5 3 -10 10 -10 16 0 5 5 9 10 9 6 0 10 -7 10 -16z m264 -20 c10
-27 7 -56 -6 -52 -15 5 -24 68 -10 68 6 0 13 -7 16 -16z m-60 -23 c0 -11 3
-21 8 -21 5 0 4 -9 -2 -20 -6 -11 -15 -18 -20 -15 -12 7 -23 62 -15 75 11 17
30 5 29 -19z m-99 -10 c-3 -6 -14 -11 -23 -11 -13 0 -13 2 4 14 21 15 30 14
19 -3z m-8 -37 c-3 -3 -12 -4 -19 -1 -8 3 -5 6 6 6 11 1 17 -2 13 -5z"/>
<path d="M4600 1118 c-13 -5 -28 -14 -32 -21 -4 -7 -8 -60 -8 -118 0 -86 3
-108 15 -113 8 -3 15 -10 15 -17 0 -6 -7 -9 -15 -5 -13 5 -15 -13 -14 -134 0
-94 4 -140 11 -140 6 0 8 -3 5 -7 -12 -11 27 -32 61 -33 29 0 32 2 22 19 -7
14 -7 28 0 47 6 15 8 35 5 44 -3 10 -1 21 5 25 14 9 11 128 -4 138 -8 5 -7 10
2 16 9 5 13 25 12 52 -1 24 -1 65 -1 92 l1 47 75 0 74 0 3 -192 c2 -106 0
-200 -4 -208 -5 -11 -7 -9 -8 8 0 12 -4 22 -10 22 -5 0 -10 -4 -10 -10 0 -5
-7 -10 -15 -10 -8 0 -15 5 -15 10 0 6 -14 10 -31 10 -20 0 -29 -4 -26 -12 2
-7 -4 -23 -15 -35 -23 -25 -17 -43 16 -43 12 0 28 -6 35 -12 11 -11 13 -10 8
5 -8 22 31 24 39 2 5 -11 22 -15 64 -15 91 0 88 -8 89 296 2 325 18 298 -183
300 -77 1 -152 -3 -166 -8z m90 -78 c13 -8 13 -10 -2 -10 -9 0 -20 5 -23 10
-8 13 5 13 25 0z m-40 -260 c0 -5 -4 -10 -10 -10 -5 0 -10 5 -10 10 0 6 5 10
10 10 6 0 10 -4 10 -10z m276 -188 c-14 -14 -16 -14 -16 -1 0 20 23 44 29 28
2 -6 -4 -18 -13 -27z m-299 -17 c9 -26 -4 -28 -26 -6 -21 21 -21 21 -1 21 11
0 23 -7 27 -15z"/>
<path d="M5105 1093 c4 -21 14 -54 22 -73 9 -19 15 -41 14 -48 -1 -8 5 -22 14
-32 8 -9 13 -23 10 -31 -3 -8 6 -50 20 -93 14 -43 25 -85 25 -92 0 -7 14 -15
30 -19 34 -7 41 -25 10 -25 -11 0 -20 -2 -20 -5 0 -23 34 -135 39 -128 3 5 21
15 39 22 17 8 32 17 32 22 0 5 11 9 25 9 16 0 25 -6 25 -16 0 -12 -6 -15 -22
-11 -18 5 -26 0 -35 -18 -11 -24 -10 -25 22 -25 18 0 37 6 42 13 15 18 34 79
23 72 -6 -4 -10 1 -10 9 0 9 5 16 10 16 13 0 23 26 54 136 13 46 20 81 15 78
-5 -3 -9 -1 -9 5 0 5 5 11 11 13 11 4 78 208 79 241 0 14 -9 17 -54 17 -30 0
-57 -3 -60 -8 -13 -21 -100 -372 -100 -404 0 -25 -5 -38 -13 -38 -7 0 -13 3
-13 8 0 4 -16 65 -35 136 -22 84 -40 133 -51 139 -12 7 -13 11 -4 17 9 5 7 24
-7 76 l-18 69 -59 3 -58 3 7 -38z m380 -84 c4 -6 5 -13 2 -16 -8 -7 -47 7 -47
18 0 13 37 11 45 -2z m-313 -44 c0 -5 -5 -11 -11 -13 -6 -2 -11 4 -11 13 0 9
5 15 11 13 6 -2 11 -8 11 -13z m308 -35 c8 -5 11 -12 8 -16 -10 -9 -38 3 -38
16 0 12 10 13 30 0z m-260 -10 c0 -5 -4 -10 -10 -10 -5 0 -10 5 -10 10 0 6 5
10 10 10 6 0 10 -4 10 -10z m80 -185 c7 -9 10 -18 7 -22 -8 -7 -37 15 -37 28
0 14 16 11 30 -6z m33 -88 c7 -23 5 -32 -11 -48 -19 -17 -42 -25 -42 -15 0 2
7 16 15 32 9 19 11 32 5 38 -15 15 -12 28 7 24 9 -2 21 -16 26 -31z m87 23 c0
-5 -2 -10 -4 -10 -3 0 -8 5 -11 10 -3 6 -1 10 4 10 6 0 11 -4 11 -10z m-26
-45 c3 -8 1 -15 -4 -15 -6 0 -10 7 -10 15 0 8 2 15 4 15 2 0 6 -7 10 -15z"/>
<path d="M5720 921 c0 -191 2 -210 18 -214 16 -4 16 -5 0 -6 -15 -1 -18 -11
-17 -68 1 -65 2 -66 11 -30 11 42 19 44 74 21 27 -11 55 -15 93 -11 57 6 58
-1 3 -23 -27 -11 -40 -11 -73 0 -38 13 -41 12 -67 -13 -16 -15 -31 -24 -35
-20 -4 3 -7 -2 -7 -12 0 -13 3 -15 13 -6 8 6 17 7 21 3 4 -4 53 -8 108 -8 86
-1 103 1 119 17 11 11 19 21 19 24 0 9 -49 5 -55 -5 -7 -12 -25 -13 -25 -2 0
4 14 13 32 21 25 11 40 12 72 3 48 -12 55 -9 33 16 -10 10 -14 22 -10 27 5 4
-40 5 -98 2 -88 -6 -109 -4 -119 8 -9 10 -9 15 -1 15 7 0 11 21 11 55 0 61 -1
60 88 55 23 -1 34 4 39 17 3 10 15 29 25 42 30 40 23 49 -34 49 -29 0 -68 1
-85 1 l-33 1 0 65 0 65 115 0 115 0 0 58 0 59 -175 2 -175 2 0 -210z m95 179
c3 -5 1 -10 -4 -10 -6 0 -11 5 -11 10 0 6 2 10 4 10 3 0 8 -4 11 -10z m84 -44
c8 -10 8 -16 -2 -25 -16 -13 -27 -5 -27 21 0 21 13 23 29 4z m151 4 c0 -5 -4
-10 -10 -10 -5 0 -10 5 -10 10 0 6 5 10 10 10 6 0 10 -4 10 -10z m-220 -41
c-12 -21 -30 -17 -30 6 0 14 20 25 33 18 4 -2 2 -13 -3 -24z m-50 -109 c0 -5
-2 -10 -4 -10 -3 0 -8 5 -11 10 -3 6 -1 10 4 10 6 0 11 -4 11 -10z m10 -30 c0
-5 -2 -10 -4 -10 -3 0 -8 5 -11 10 -3 6 -1 10 4 10 6 0 11 -4 11 -10z m40 0
c0 -5 -2 -10 -4 -10 -3 0 -8 5 -11 10 -3 6 -1 10 4 10 6 0 11 -4 11 -10z m-80
-15 c0 -8 -4 -15 -10 -15 -5 0 -10 7 -10 15 0 8 5 15 10 15 6 0 10 -7 10 -15z
m200 -46 c0 -5 -4 -9 -10 -9 -5 0 -10 7 -10 16 0 8 5 12 10 9 6 -3 10 -10 10
-16z m-190 -9 c0 -5 -5 -10 -11 -10 -7 0 -9 -10 -5 -25 4 -14 2 -25 -4 -25 -5
0 -10 16 -10 35 0 24 5 35 15 35 8 0 15 -4 15 -10z"/>
<path d="M6240 960 c1 -123 5 -170 13 -170 7 0 6 -4 -3 -10 -13 -8 -12 -10 4
-10 14 0 17 -5 12 -22 -3 -13 -6 -27 -6 -33 0 -5 -5 -3 -10 5 -8 13 -10 13
-10 -2 0 -9 6 -19 13 -21 8 -4 9 -8 1 -14 -5 -4 -11 -38 -12 -74 -3 -69 8 -88
39 -68 8 5 26 9 41 9 l27 0 -1 90 c-1 69 -4 90 -14 90 -8 0 -14 5 -14 11 0 6
7 9 15 5 12 -4 15 4 15 44 0 27 -4 52 -10 55 -15 9 -12 22 5 29 11 4 22 -10
41 -50 20 -44 29 -54 42 -49 56 24 72 28 78 23 11 -11 -6 -28 -29 -28 -32 0
-50 -33 -36 -64 6 -13 20 -27 31 -29 15 -4 19 -13 16 -39 -3 -30 -1 -33 21
-30 13 2 32 -5 46 -18 l23 -22 17 32 c15 29 43 37 37 11 -1 -6 4 -11 12 -11
10 0 13 38 15 194 1 179 0 195 -16 199 -17 4 -17 5 0 6 14 1 17 11 17 66 l0
66 -57 -3 -58 -3 -1 -158 c-1 -130 1 -157 12 -153 49 20 49 20 27 -3 -12 -13
-26 -20 -31 -17 -6 3 -12 1 -14 -6 -2 -6 -10 2 -17 19 -7 17 -22 36 -34 42
-12 7 -14 9 -4 7 24 -7 21 7 -9 37 -14 14 -23 30 -20 36 4 5 -15 53 -40 105
l-47 96 -64 0 -64 0 1 -170z m340 100 c0 -5 -5 -10 -11 -10 -5 0 -7 5 -4 10 3
6 8 10 11 10 2 0 4 -4 4 -10z m20 -35 c0 -9 -9 -15 -21 -15 -18 0 -19 2 -9 15
7 8 16 15 21 15 5 0 9 -7 9 -15z m-220 -10 c7 -8 8 -15 2 -15 -5 0 -15 7 -22
15 -7 8 -8 15 -2 15 5 0 15 -7 22 -15z m50 -55 c12 -8 11 -10 -7 -10 -13 0
-23 5 -23 10 0 13 11 13 30 0z m-130 -26 c0 -8 -4 -12 -10 -9 -5 3 -10 10 -10
16 0 5 5 9 10 9 6 0 10 -7 10 -16z m295 -14 c3 -5 1 -10 -4 -10 -6 0 -11 5
-11 10 0 6 2 10 4 10 3 0 8 -4 11 -10z m-155 -20 c0 -5 -4 -10 -10 -10 -5 0
-10 5 -10 10 0 6 5 10 10 10 6 0 10 -4 10 -10z m10 -36 c0 -8 -5 -12 -10 -9
-6 4 -8 11 -5 16 9 14 15 11 15 -7z m-5 -34 c3 -5 -3 -10 -14 -10 -12 0 -21 5
-21 10 0 6 6 10 14 10 8 0 18 -4 21 -10z m-125 -40 c0 -5 -2 -10 -4 -10 -3 0
-8 5 -11 10 -3 6 -1 10 4 10 6 0 11 -4 11 -10z m243 -27 c4 -3 2 -12 -4 -19
-13 -15 -4 -34 16 -34 15 0 32 -46 21 -57 -4 -4 -20 9 -36 28 -19 23 -29 29
-30 18 0 -9 9 -24 20 -34 26 -23 26 -45 0 -45 -38 0 -51 55 -26 115 15 34 26
42 39 28z m47 3 c0 -11 -19 -15 -25 -6 -3 5 1 10 9 10 9 0 16 -2 16 -4z m-300
-16 c0 -5 -5 -10 -11 -10 -5 0 -7 5 -4 10 3 6 8 10 11 10 2 0 4 -4 4 -10z
m326 -28 c-9 -9 -37 8 -31 18 5 8 11 7 21 -1 8 -6 12 -14 10 -17z m-302 -18
c4 -10 1 -14 -6 -12 -15 5 -23 28 -10 28 5 0 13 -7 16 -16z m166 -4 c0 -5 -7
-10 -15 -10 -8 0 -15 5 -15 10 0 6 7 10 15 10 8 0 15 -4 15 -10z m-160 -46 c0
-13 -3 -14 -14 -5 -11 9 -15 9 -19 -1 -4 -8 -6 -7 -6 5 -1 11 6 17 19 17 12 0
20 -7 20 -16z m-35 -34 c9 -14 -13 -50 -30 -50 -18 0 -19 14 -5 41 12 21 25
25 35 9z"/>
<path d="M285 870 c3 -5 8 -10 11 -10 2 0 4 5 4 10 0 6 -5 10 -11 10 -5 0 -7
-4 -4 -10z"/>
<path d="M264 824 c-17 -7 -4 -54 15 -54 12 0 17 8 16 27 0 26 -10 35 -31 27z"/>
<path d="M20 694 c-14 -37 -13 -40 17 -39 32 0 43 -24 15 -32 -25 -6 -25 -40
-1 -64 9 -9 36 -19 60 -23 40 -6 42 -5 20 6 -33 17 -37 34 -10 41 30 8 39 1
39 -29 0 -20 5 -24 31 -24 17 0 57 14 89 31 54 29 57 32 46 55 -13 29 -42 32
-49 5 -3 -13 2 -21 17 -26 19 -6 19 -8 3 -12 -27 -7 -47 4 -47 26 0 10 -7 22
-16 25 -15 6 -54 8 -54 3 0 -1 4 -16 9 -34 9 -31 9 -32 -15 -21 -14 7 -24 20
-24 32 -1 21 -1 21 -12 1 -6 -11 -12 -22 -14 -24 -9 -10 -43 46 -38 62 4 13
-1 20 -15 24 -12 3 -21 13 -21 24 0 28 -19 23 -30 -7z m205 -74 c-3 -5 -11
-10 -16 -10 -6 0 -7 5 -4 10 3 6 11 10 16 10 6 0 7 -4 4 -10z"/>
<path d="M930 650 c0 -5 5 -10 10 -10 6 0 10 5 10 10 0 6 -4 10 -10 10 -5 0
-10 -4 -10 -10z"/>
<path d="M323 554 c-18 -8 -33 -15 -33 -17 0 -1 16 -3 35 -4 29 -3 35 0 35 17
0 11 -1 20 -2 19 -2 0 -18 -7 -35 -15z"/>
<path d="M6514 554 c3 -9 6 -18 6 -20 0 -2 5 -4 10 -4 6 0 10 9 10 20 0 12 -7
20 -16 20 -11 0 -14 -5 -10 -16z"/>
<path d="M1130 539 c0 -5 5 -7 10 -4 6 3 10 8 10 11 0 2 -4 4 -10 4 -5 0 -10
-5 -10 -11z"/>
<path d="M6055 540 c-3 -5 -1 -10 4 -10 6 0 11 5 11 10 0 6 -2 10 -4 10 -3 0
-8 -4 -11 -10z"/>
<path d="M1164 236 c-3 -7 -4 -38 -2 -67 l3 -54 55 -5 c51 -5 55 -7 58 -32 3
-26 1 -28 -32 -28 -25 0 -36 4 -36 15 0 9 -9 15 -25 15 -21 0 -25 -5 -25 -28
0 -15 5 -33 12 -40 16 -16 130 -16 146 0 16 16 16 110 0 126 -7 7 -34 12 -61
12 -47 0 -48 1 -45 28 2 22 8 28 36 30 24 2 32 -1 32 -12 0 -18 35 -22 45 -5
4 5 4 21 1 35 -6 23 -10 24 -82 24 -54 0 -76 -4 -80 -14z"/>
<path d="M1400 125 l0 -125 76 0 c72 0 75 1 72 23 -3 19 -10 22 -50 25 -46 3
-48 5 -48 33 0 27 3 29 35 29 28 0 35 4 35 20 0 16 -7 20 -35 20 -32 0 -35 2
-35 30 0 29 1 30 50 30 43 0 50 3 50 20 0 18 -7 20 -75 20 l-75 0 0 -125z"/>
<path d="M1677 243 c-6 -11 -67 -223 -67 -235 0 -5 10 -8 23 -6 14 2 23 11 25
26 3 19 9 22 47 22 38 0 44 -3 47 -22 2 -15 11 -24 26 -26 29 -4 28 9 -12 138
-29 95 -35 105 -58 108 -14 2 -28 0 -31 -5z m47 -115 c6 -25 3 -28 -18 -28
-23 0 -24 1 -13 41 10 43 18 39 31 -13z"/>
<path d="M1871 236 c-7 -8 -11 -36 -9 -68 l3 -53 58 -3 c56 -3 57 -4 57 -32 0
-26 -4 -30 -29 -30 -17 0 -31 6 -35 16 -9 24 -50 14 -54 -14 -6 -39 14 -52 83
-52 78 0 87 10 83 87 l-3 58 -52 3 c-51 3 -53 4 -53 33 0 26 3 29 30 29 20 0
30 -5 30 -15 0 -9 10 -15 26 -15 23 0 25 3 22 33 l-3 32 -71 3 c-53 2 -74 -1
-83 -12z"/>
<path d="M2107 244 c-4 -4 -7 -58 -7 -120 0 -130 -2 -128 101 -122 l54 3 0
120 0 120 -70 3 c-39 1 -74 0 -78 -4z m111 -116 l3 -78 -36 0 -35 0 0 81 0 80
33 -3 32 -3 3 -77z"/>
<path d="M2340 125 l0 -125 25 0 c24 0 25 2 25 73 l1 72 34 -72 c30 -62 39
-73 60 -73 l25 0 0 125 0 125 -25 0 c-24 0 -25 -2 -26 -67 l-1 -68 -31 67
c-28 59 -35 68 -59 68 l-28 0 0 -125z"/>
<path d="M2609 125 l-36 -125 23 0 c17 0 25 7 30 25 5 21 12 25 45 25 33 0 41
-4 49 -25 6 -16 17 -25 31 -25 25 0 25 0 -22 153 -29 91 -32 97 -58 97 -26 0
-28 -5 -62 -125z m90 -17 c1 -5 -11 -8 -25 -8 -22 0 -24 3 -19 23 4 12 9 31
12 42 5 17 8 15 19 -15 7 -19 13 -38 13 -42z"/>
<path d="M2830 125 l0 -125 70 0 c68 0 70 1 70 25 0 23 -4 25 -45 25 l-45 0 0
100 0 100 -25 0 -25 0 0 -125z"/>
<path d="M3174 237 c-3 -8 -4 -39 -2 -68 l3 -54 55 -5 c51 -5 55 -7 58 -32 3
-26 1 -28 -32 -28 -25 0 -36 4 -36 15 0 9 -9 15 -25 15 -22 0 -25 -4 -25 -35
0 -41 16 -48 101 -43 l54 3 0 70 0 70 -52 3 c-51 3 -53 4 -53 33 0 26 3 29 30
29 18 0 33 -6 36 -15 4 -8 15 -15 26 -15 16 0 19 6 16 33 l-3 32 -73 3 c-55 2
-74 0 -78 -11z"/>
<path d="M3400 230 c0 -16 7 -20 30 -20 l30 0 0 -105 c0 -98 1 -105 20 -105
19 0 20 7 20 105 l0 105 30 0 c23 0 30 4 30 20 0 18 -7 20 -80 20 -73 0 -80
-2 -80 -20z"/>
<path d="M3630 125 c0 -125 0 -126 23 -123 19 3 22 10 25 51 3 45 5 47 33 47
28 0 29 -1 29 -50 0 -47 2 -50 25 -50 l25 0 -3 123 -2 122 -77 3 -78 3 0 -126z
m110 50 c0 -32 -2 -35 -30 -35 -28 0 -30 3 -30 35 0 32 2 35 30 35 28 0 30 -3
30 -35z"/>
<path d="M3870 125 l0 -125 70 0 c68 0 70 1 70 25 0 23 -3 25 -51 25 -49 0
-50 1 -47 28 3 23 8 27 41 30 30 3 37 7 35 20 -2 12 -15 18 -41 20 -35 3 -38
6 -35 30 3 25 7 27 51 30 39 3 47 6 47 23 0 17 -7 19 -70 19 l-70 0 0 -125z"/>
<path d="M4080 125 l0 -125 75 0 c73 0 75 1 75 25 0 23 -3 25 -51 25 -49 0
-50 1 -47 28 2 22 8 28 36 30 24 2 32 8 32 23 0 15 -7 19 -35 19 -32 0 -35 2
-35 30 0 29 1 30 50 30 43 0 50 3 50 20 0 18 -7 20 -75 20 l-75 0 0 -125z"/>
<path d="M4290 230 c0 -16 7 -20 30 -20 l30 0 0 -105 0 -105 25 0 25 0 0 105
0 105 30 0 c23 0 30 4 30 20 0 18 -7 20 -85 20 -78 0 -85 -2 -85 -20z"/>
<path d="M4660 125 l0 -125 25 0 c23 0 25 3 25 50 l0 50 35 0 c31 0 35 3 35
25 0 22 -4 25 -35 25 -32 0 -35 2 -35 30 0 29 1 30 50 30 43 0 50 3 50 20 0
18 -7 20 -75 20 l-75 0 0 -125z"/>
<path d="M4877 244 c-4 -4 -7 -58 -7 -120 0 -93 3 -113 16 -118 23 -9 117 -7
132 2 9 6 12 38 10 123 l-3 114 -70 3 c-39 1 -74 0 -78 -4z m103 -114 l0 -80
-30 0 -30 0 0 80 0 80 30 0 30 0 0 -80z"/>
<path d="M5112 128 l3 -123 54 -3 c104 -6 102 -9 99 126 l-3 117 -78 3 -78 3
3 -123z m108 2 l0 -80 -35 0 -35 0 0 73 c0 41 3 77 7 80 3 4 19 7 35 7 l28 0
0 -80z"/>
<path d="M5340 125 l0 -126 78 3 77 3 0 120 0 120 -77 3 -78 3 0 -126z m118 3
l3 -78 -36 0 -35 0 0 81 0 80 33 -3 32 -3 3 -77z"/>
<path d="M880 130 c0 -17 7 -20 40 -20 33 0 40 3 40 20 0 17 -7 20 -40 20 -33
0 -40 -3 -40 -20z"/>
<path d="M5707 143 c-20 -19 -5 -33 38 -33 38 0 45 3 45 20 0 17 -7 20 -38 20
-21 0 -42 -3 -45 -7z"/>
</g>
</svg>
