<?xml version="1.0" standalone="no"?>
<!DOCTYPE svg PUBLIC "-//W3C//DTD SVG 20010904//EN"
 "http://www.w3.org/TR/2001/REC-SVG-20010904/DTD/svg10.dtd">
<svg version="1.0" xmlns="http://www.w3.org/2000/svg"
 width="1170.000000pt" height="1088.000000pt" viewBox="0 0 1170.000000 1088.000000"
 preserveAspectRatio="xMidYMid meet">

<g transform="translate(0.000000,1088.000000) scale(0.100000,-0.100000)"
fill="#4f3920" stroke="none">
<path d="M2190 10050 l0 -160 30 0 30 0 0 60 0 60 60 0 c57 0 60 1 60 25 0 22
-4 24 -57 27 l-58 3 -3 48 -3 47 76 0 c73 0 76 1 73 23 -3 21 -8 22 -105 25
l-103 3 0 -161z"/>
<path d="M2620 10199 c-35 -14 -59 -38 -81 -81 -64 -125 59 -266 199 -229 50
14 108 76 118 126 13 71 -26 149 -90 179 -38 18 -107 20 -146 5z m142 -76 c54
-51 42 -135 -22 -168 -59 -30 -115 -13 -145 45 -23 44 -18 76 15 114 47 53
102 56 152 9z"/>
<path d="M3080 10192 c-66 -33 -103 -119 -81 -192 35 -116 180 -156 271 -74
83 75 67 213 -30 265 -44 24 -115 24 -160 1z m158 -77 c35 -38 40 -70 18 -114
-20 -38 -58 -61 -102 -61 -48 0 -104 53 -104 99 0 45 24 85 62 105 45 23 86
13 126 -29z"/>
<path d="M3490 10050 l0 -160 83 0 c64 0 89 4 115 20 47 29 72 76 72 135 0
108 -67 165 -197 165 l-73 0 0 -160z m183 70 c21 -23 27 -40 27 -74 0 -69 -52
-113 -126 -104 l-29 3 -3 94 c-4 124 -3 125 56 117 35 -4 54 -14 75 -36z"/>
<path d="M4156 10193 c-3 -10 -14 -72 -26 -138 -12 -66 -23 -130 -27 -142 -4
-20 -1 -23 25 -23 l30 0 12 85 c7 47 14 85 17 85 2 0 22 -38 44 -85 22 -46 44
-87 49 -90 6 -3 29 35 52 85 44 97 51 99 62 15 13 -87 16 -95 42 -95 16 0 24
6 24 18 0 30 -48 293 -54 300 -11 10 -31 -20 -71 -108 -21 -47 -42 -89 -46
-94 -5 -5 -32 39 -60 97 -29 59 -55 107 -60 107 -4 0 -10 -8 -13 -17z"/>
<path d="M4620 10086 c0 -119 1 -126 25 -155 50 -59 141 -64 195 -10 33 33 37
57 32 197 -3 90 -4 92 -28 92 -24 0 -24 0 -24 -110 0 -104 -1 -112 -25 -135
-27 -28 -62 -32 -91 -11 -16 12 -20 30 -24 133 l-5 118 -27 3 -28 3 0 -125z"/>
<path d="M5020 10186 c0 -21 5 -25 38 -28 l37 -3 3 -132 3 -133 24 0 25 0 0
135 0 135 46 0 c41 0 45 2 42 23 -3 21 -8 22 -110 25 l-108 3 0 -25z"/>
<path d="M5387 10203 c-3 -5 -5 -77 -6 -160 l-2 -153 30 0 31 0 0 160 0 160
-24 0 c-14 0 -27 -3 -29 -7z"/>
<path d="M5620 10050 l0 -160 30 0 30 0 0 103 0 102 101 -108 c55 -59 104
-105 108 -102 4 2 7 14 5 27 -1 13 -3 85 -3 161 l-1 137 -25 0 -25 0 0 -102
-1 -103 -97 103 c-53 56 -103 102 -109 102 -10 0 -13 -39 -13 -160z"/>
<path d="M6030 10204 c0 -4 25 -42 55 -85 55 -78 55 -79 55 -154 l0 -75 28 0
28 0 -3 70 -4 70 56 79 c30 43 55 84 55 90 0 7 -11 11 -27 9 -20 -2 -39 -18
-67 -56 l-39 -53 -39 56 c-33 45 -45 55 -69 55 -16 0 -29 -3 -29 -6z"/>
<path d="M6648 10204 c-5 -4 -8 -76 -8 -161 l0 -153 30 0 30 0 0 60 0 60 51 0
c43 0 55 5 80 29 40 40 40 89 0 133 -27 30 -34 33 -102 36 -41 2 -77 0 -81 -4z
m130 -60 c25 -17 29 -56 8 -73 -8 -7 -30 -13 -48 -14 l-33 -2 -3 53 c-3 51 -3
52 25 52 16 0 39 -7 51 -16z"/>
<path d="M7010 10050 l0 -160 30 0 c29 0 29 1 32 63 3 55 5 62 25 65 19 3 28
-8 55 -62 30 -62 34 -66 66 -66 l33 0 -32 60 -32 61 31 31 c24 22 32 39 32 65
0 75 -45 103 -165 103 l-75 0 0 -160z m164 94 c22 -21 20 -61 -3 -74 -11 -5
-38 -10 -60 -10 l-41 0 0 50 0 50 44 0 c27 0 51 -6 60 -16z"/>
<path d="M7420 10050 l0 -160 106 0 c104 0 105 0 102 23 -3 20 -9 22 -75 25
l-73 3 0 44 0 45 60 0 c57 0 60 1 60 25 0 24 -3 25 -60 25 l-60 0 0 40 0 40
76 0 c72 0 75 1 72 23 -3 21 -8 22 -105 25 l-103 3 0 -161z"/>
<path d="M7795 10185 c-27 -26 -33 -72 -15 -106 6 -10 32 -30 58 -43 56 -28
75 -48 70 -72 -6 -33 -33 -39 -78 -19 -35 16 -43 17 -51 4 -16 -26 -10 -37 31
-53 48 -19 66 -20 109 -5 39 14 65 59 56 100 -7 33 -36 58 -101 90 -39 18 -45
25 -42 48 3 23 7 26 38 25 19 -1 45 -5 57 -9 16 -5 24 -2 32 14 10 18 7 22
-18 36 -48 24 -117 20 -146 -10z"/>
<path d="M8140 10050 l0 -160 100 0 c100 0 100 0 100 25 0 23 -3 24 -72 27
l-73 3 0 40 0 40 63 3 c59 3 63 5 60 25 -3 19 -11 23 -63 27 l-60 5 0 35 0 35
73 3 c69 3 72 4 72 27 0 25 0 25 -100 25 l-100 0 0 -160z"/>
<path d="M8510 10050 l0 -160 25 0 25 0 0 103 1 102 102 -108 c56 -60 105
-105 110 -101 4 4 7 79 7 166 l0 159 -27 -3 -28 -3 -3 -92 c-1 -51 -6 -93 -9
-93 -4 0 -47 43 -96 95 -49 52 -93 95 -98 95 -5 0 -9 -70 -9 -160z"/>
<path d="M8927 10203 c-4 -3 -7 -15 -7 -25 0 -14 8 -18 40 -18 l40 0 0 -135 0
-135 30 0 29 0 3 133 3 132 38 3 c32 3 37 7 37 28 0 24 0 24 -103 24 -57 0
-107 -3 -110 -7z"/>
<path d="M9294 10186 c-54 -46 -31 -121 46 -153 69 -29 91 -71 49 -94 -17 -9
-30 -7 -61 7 -39 18 -41 18 -55 -1 -12 -18 -12 -22 7 -37 55 -45 166 -26 190
32 22 54 0 89 -81 130 -60 31 -77 53 -57 77 12 15 46 14 95 -2 16 -5 24 -2 33
14 10 19 7 23 -24 36 -54 23 -110 19 -142 -9z"/>
<path d="M790 9427 c0 -111 -20 -173 -74 -234 -61 -68 -124 -98 -206 -98 -36
0 -68 -4 -72 -10 -4 -5 -8 -1379 -8 -3051 l0 -3041 78 -5 c88 -5 141 -28 198
-85 60 -59 78 -112 82 -239 l4 -110 202 -27 c110 -15 414 -55 673 -87 260 -33
503 -65 540 -70 38 -6 266 -35 508 -65 242 -31 519 -66 615 -80 96 -13 357
-47 580 -75 223 -28 452 -57 510 -66 58 -8 301 -39 540 -69 239 -30 516 -66
615 -80 290 -42 307 -42 595 -2 140 20 422 57 625 82 204 25 449 57 545 70 96
14 357 47 580 75 223 28 466 59 540 70 74 11 338 44 585 75 248 31 459 58 470
61 11 2 268 36 570 74 303 38 623 80 712 92 l161 22 4 111 c3 126 20 169 90
242 59 60 126 87 205 80 l63 -5 0 3053 0 3052 -74 5 c-122 8 -205 64 -257 173
-26 53 -29 71 -29 153 l0 92 -5085 0 -5085 0 0 -83z m9953 -242 c53 -142 157
-247 304 -309 l78 -33 0 -2803 0 -2802 -60 -22 c-154 -56 -281 -186 -331 -341
-9 -27 -19 -53 -23 -57 -7 -8 -345 -58 -731 -108 -484 -64 -494 -65 -660 -89
-74 -11 -292 -41 -485 -66 -192 -25 -424 -57 -515 -70 -91 -13 -356 -49 -590
-80 -234 -31 -432 -58 -440 -60 -8 -2 -204 -29 -435 -59 -231 -31 -545 -73
-697 -95 l-278 -39 -207 28 c-115 16 -345 48 -513 70 -168 22 -449 61 -625 85
-176 25 -408 56 -515 70 -107 14 -373 50 -590 80 -217 30 -501 68 -630 85
-129 17 -296 40 -370 51 -74 11 -319 44 -545 74 -509 67 -836 114 -847 121 -4
3 -8 13 -8 23 0 37 -82 183 -135 240 -40 43 -78 70 -145 105 -50 25 -98 46
-106 46 -12 0 -14 371 -14 2809 l0 2808 59 22 c84 30 174 93 228 160 45 55
113 184 113 215 0 15 455 16 4843 16 l4842 0 28 -75z"/>
<path d="M7725 8509 c-156 -50 -255 -191 -255 -361 0 -60 5 -84 29 -134 49
-104 140 -162 371 -234 211 -66 286 -110 338 -199 23 -40 27 -57 27 -126 0
-70 -4 -87 -30 -134 -58 -105 -151 -153 -300 -154 -201 -1 -339 87 -424 271
-19 41 -29 52 -48 52 l-23 0 0 -200 0 -200 28 0 c15 0 38 9 52 20 32 25 68 25
188 1 271 -54 439 -28 562 86 76 70 116 149 132 260 21 156 -18 281 -116 370
-66 59 -94 72 -313 148 -103 36 -208 77 -233 92 -111 69 -121 241 -19 327 57
48 94 59 189 54 94 -5 128 -18 192 -76 39 -35 108 -158 108 -192 0 -28 28 -59
50 -53 19 5 20 14 20 165 l0 160 -33 -6 c-25 -5 -50 1 -100 24 -136 62 -279
76 -392 39z"/>
<path d="M5190 8393 l0 -123 25 0 c17 0 32 12 55 45 32 47 94 89 145 99 17 3
98 8 182 11 l152 6 6 -23 c3 -13 5 -273 3 -579 -3 -633 3 -591 -93 -634 -49
-21 -55 -27 -55 -54 l0 -31 234 0 c219 0 234 1 239 19 7 29 -9 48 -67 74 -47
22 -56 31 -66 64 -7 26 -10 209 -8 598 l3 560 110 1 c221 3 316 -26 370 -112
22 -35 34 -44 56 -44 l29 0 0 123 0 122 -660 0 -660 0 0 -122z"/>
<path d="M1680 8488 c0 -30 15 -49 62 -77 28 -17 40 -33 48 -62 7 -26 10 -217
8 -568 -3 -513 -4 -530 -23 -551 -11 -12 -33 -29 -50 -37 -36 -19 -45 -31 -45
-60 l0 -23 363 0 c272 0 378 4 428 14 73 16 169 60 218 102 70 59 109 196 90
316 -23 143 -105 217 -282 254 -39 8 -73 17 -75 18 -1 2 24 13 56 24 113 42
183 105 223 202 23 56 17 195 -10 251 -29 61 -95 127 -156 155 -114 52 -147
56 -512 61 l-343 5 0 -24z m520 -69 c186 -11 266 -45 312 -132 19 -35 23 -58
23 -142 0 -85 -4 -107 -24 -145 -32 -61 -48 -78 -101 -105 -68 -34 -137 -45
-290 -45 l-140 0 0 283 c0 156 2 286 5 288 7 8 77 7 215 -2z m211 -678 c93
-29 154 -84 175 -159 34 -115 -4 -269 -80 -327 -66 -50 -106 -58 -323 -63
l-203 -4 0 292 0 293 183 -6 c146 -4 195 -9 248 -26z"/>
<path d="M3000 8482 c0 -22 8 -36 26 -49 15 -10 40 -30 55 -45 l29 -26 0 -549
c-1 -429 -4 -553 -14 -571 -7 -13 -30 -34 -52 -46 -31 -17 -40 -28 -42 -54
l-3 -32 206 0 206 0 -3 32 c-2 26 -11 37 -42 54 -65 36 -65 40 -66 327 l0 257
99 0 c54 0 123 -5 152 -10 107 -20 128 -45 395 -462 l127 -198 148 0 149 0 0
31 c0 27 -6 33 -57 55 -32 14 -69 35 -82 47 -23 22 -378 546 -383 567 -2 6 27
21 63 33 108 37 186 112 210 201 18 65 7 223 -18 271 -32 61 -77 103 -137 131
-106 48 -172 55 -583 61 l-383 5 0 -30z m720 -68 c55 -10 127 -53 154 -93 36
-53 49 -109 44 -192 -11 -201 -131 -269 -475 -269 l-143 0 0 278 c0 153 3 282
7 285 7 8 361 0 413 -9z"/>
<path d="M4560 8476 c0 -30 5 -38 39 -57 69 -38 66 -14 66 -613 0 -605 3 -578
-70 -613 -30 -14 -35 -22 -35 -50 l0 -33 205 0 205 0 0 25 c0 24 -34 65 -55
65 -6 0 -22 12 -36 26 l-24 26 -3 531 c-2 358 0 544 8 569 7 26 21 43 48 59
47 28 62 47 62 76 l0 23 -205 0 -205 0 0 -34z"/>
<path d="M6720 8476 c0 -30 5 -37 42 -58 23 -13 48 -34 55 -48 10 -20 12 -144
10 -572 l-2 -546 -23 -25 c-13 -14 -37 -31 -53 -37 -24 -10 -29 -18 -29 -46
l0 -34 205 0 c195 0 205 1 205 19 0 35 -12 52 -52 72 -69 35 -68 25 -68 607 0
348 4 529 11 550 7 21 27 42 60 62 41 25 49 35 49 60 l0 30 -205 0 -205 0 0
-34z"/>
<path d="M8560 8480 c0 -20 8 -34 26 -47 15 -10 40 -30 55 -45 l29 -26 -1
-549 c0 -301 -4 -557 -8 -568 -4 -11 -28 -31 -52 -45 -35 -21 -45 -32 -47 -58
l-3 -32 205 0 206 0 0 30 c0 25 -8 35 -44 57 -72 43 -71 38 -74 326 l-3 257
410 0 411 0 -1 -257 c0 -142 -4 -267 -8 -278 -4 -11 -28 -31 -52 -45 -35 -21
-45 -32 -47 -58 l-3 -32 205 0 206 0 0 30 c0 25 -8 35 -45 58 -25 15 -50 39
-57 57 -19 43 -19 1080 -1 1112 7 12 32 34 55 50 34 22 44 36 46 61 l3 32
-205 0 -206 0 0 -30 c0 -20 8 -34 26 -47 15 -10 40 -30 55 -45 l29 -26 0 -246
0 -246 -407 2 -408 3 0 235 c0 170 3 241 12 257 7 12 32 34 55 50 34 22 44 36
46 61 l3 32 -205 0 -206 0 0 -30z"/>
<path d="M2798 6704 c-118 -28 -213 -100 -264 -201 -24 -49 -30 -72 -32 -149
-5 -111 17 -172 83 -233 55 -51 113 -79 255 -126 145 -48 183 -67 211 -106 29
-42 30 -119 2 -157 -36 -49 -70 -66 -136 -70 -81 -5 -126 14 -166 69 -17 23
-31 46 -31 50 0 4 -4 19 -9 32 l-9 24 -116 -17 c-64 -9 -119 -19 -122 -23 -3
-3 3 -37 15 -74 52 -169 186 -261 393 -271 113 -5 202 17 280 68 118 78 182
227 159 370 -27 167 -110 233 -406 327 -66 21 -99 37 -127 64 -34 32 -38 41
-38 87 0 144 190 195 274 74 13 -20 28 -49 31 -65 4 -15 11 -29 15 -32 4 -3
46 2 92 10 142 26 131 20 124 66 -16 98 -97 207 -188 251 -98 47 -187 57 -290
32z"/>
<path d="M6373 6700 c-119 -31 -201 -92 -274 -202 -116 -175 -142 -491 -59
-711 12 -32 45 -93 73 -135 94 -140 234 -208 410 -200 83 3 100 8 179 46 103
50 170 118 223 227 50 102 66 174 72 321 8 204 -28 348 -121 479 -53 74 -104
116 -178 149 -111 49 -208 57 -325 26z m223 -198 c33 -18 84 -80 105 -128 66
-154 65 -429 -2 -584 -42 -99 -141 -159 -236 -145 -163 24 -259 296 -208 587
31 178 95 269 205 288 41 7 106 -2 136 -18z"/>
<path d="M7561 6709 c-72 -14 -168 -65 -226 -120 -79 -74 -146 -211 -170 -344
-21 -113 -16 -282 10 -376 71 -264 250 -420 479 -419 139 1 238 41 334 136
188 188 233 582 97 859 -99 203 -306 307 -524 264z m188 -203 c32 -17 84 -73
106 -116 43 -84 69 -266 55 -390 -25 -219 -99 -335 -227 -356 -153 -24 -263
128 -279 386 -14 218 46 403 150 465 48 29 149 34 195 11z"/>
<path d="M5147 6693 c-4 -3 -7 -280 -7 -615 l0 -608 125 0 125 0 0 260 0 260
200 0 201 0 -3 103 -3 102 -197 3 -198 2 0 145 0 145 258 2 257 3 3 103 3 102
-379 0 c-208 0 -382 -3 -385 -7z"/>
<path d="M8370 6085 l0 -615 228 0 c251 0 326 11 431 65 157 79 255 267 268
510 10 205 -47 388 -154 492 -128 126 -267 163 -605 163 l-168 0 0 -615z m512
372 c67 -33 111 -84 141 -164 18 -48 21 -80 22 -183 0 -134 -13 -205 -51 -280
-24 -50 -74 -104 -115 -125 -36 -19 -143 -36 -209 -33 l-55 3 -3 409 -2 408
107 -3 c93 -4 116 -8 165 -32z"/>
<path d="M3507 6613 c-4 -3 -7 -30 -7 -59 l0 -53 93 -3 92 -3 3 -293 2 -293
68 3 67 3 3 293 2 292 90 0 90 0 0 60 0 60 -248 0 c-137 0 -252 -3 -255 -7z"/>
<path d="M3492 5738 l3 -43 288 -3 287 -2 0 45 0 45 -291 0 -290 0 3 -42z"/>
<path d="M4190 5550 c0 -79 0 -80 25 -80 14 0 25 -5 25 -10 0 -6 -11 -38 -25
-72 -14 -34 -25 -63 -25 -64 0 -4 57 -34 64 -34 3 0 26 40 51 90 42 84 45 95
45 170 l0 80 -80 0 -80 0 0 -80z"/>
<path d="M8553 5109 c-75 -13 -136 -44 -199 -102 -93 -85 -135 -203 -115 -325
23 -145 98 -210 327 -282 135 -42 168 -57 204 -93 36 -35 44 -62 37 -123 -8
-78 -72 -126 -166 -127 -80 0 -133 29 -171 96 -16 28 -30 60 -30 69 0 14 -6
16 -27 12 -16 -3 -68 -11 -118 -17 l-90 -12 2 -38 c4 -61 50 -152 103 -201 84
-79 187 -116 320 -116 192 0 332 89 396 250 23 60 26 79 22 152 -5 99 -34 164
-97 221 -54 49 -98 70 -244 117 -151 49 -210 84 -227 135 -15 44 -8 86 21 126
29 40 69 59 128 59 44 0 56 -5 90 -35 21 -19 48 -58 60 -85 12 -28 23 -50 25
-50 2 0 48 9 101 20 53 11 99 20 101 20 11 0 2 56 -17 107 -29 79 -122 172
-199 200 -67 25 -167 34 -237 22z"/>
<path d="M2841 4988 c-18 -62 -57 -203 -87 -313 -30 -110 -64 -229 -75 -265
-11 -36 -47 -164 -80 -285 -33 -121 -62 -228 -65 -237 -5 -17 5 -18 118 -18
l124 0 18 73 c9 39 27 108 40 152 l23 80 184 0 183 0 41 -152 40 -153 123 0
c69 0 122 4 122 9 0 5 -5 22 -11 38 -5 15 -28 93 -50 173 -22 80 -60 213 -84
295 -24 83 -76 263 -116 400 -39 138 -75 265 -81 283 l-9 32 -162 0 -163 0
-33 -112z m209 -113 c0 -3 27 -112 60 -242 33 -130 60 -242 60 -250 0 -10 -28
-13 -130 -13 -113 0 -130 2 -130 16 0 32 123 494 132 494 4 0 8 -2 8 -5z"/>
<path d="M3540 5086 c0 -16 116 -584 130 -636 5 -19 32 -148 60 -285 27 -138
52 -260 55 -272 5 -22 9 -23 130 -23 121 0 125 1 130 23 3 12 16 78 30 147 13
69 33 168 44 220 11 52 34 174 52 270 32 174 35 187 43 179 6 -6 55 -248 106
-524 22 -121 46 -241 52 -267 l12 -48 121 0 122 0 22 83 c11 45 46 195 76 332
31 138 69 305 85 372 17 68 44 187 60 265 17 79 33 151 36 161 5 15 -5 17
-114 17 l-119 0 -31 -162 c-26 -133 -94 -507 -119 -656 -3 -18 -9 -35 -14 -37
-9 -6 -10 1 -44 200 -58 340 -66 386 -92 518 l-27 137 -132 0 -132 0 -6 -27
c-3 -16 -31 -174 -62 -353 -75 -432 -73 -421 -83 -455 -12 -40 -15 -27 -41
135 -20 130 -90 538 -111 648 l-10 52 -115 0 c-90 0 -114 -3 -114 -14z"/>
<path d="M5235 5088 c-2 -7 -11 -35 -19 -63 -9 -27 -45 -156 -81 -285 -61
-224 -183 -658 -224 -802 l-20 -68 124 0 125 0 7 28 c3 15 21 83 38 152 l31
125 179 3 c98 1 182 -1 187 -6 7 -7 39 -115 77 -259 l12 -43 119 0 c66 0 120
4 120 8 0 12 -98 366 -125 452 -13 41 -67 231 -121 423 l-99 347 -163 0 c-121
0 -164 -3 -167 -12z m214 -353 c17 -71 44 -179 61 -240 16 -60 30 -113 30
-117 0 -5 -61 -8 -136 -8 -124 0 -135 1 -130 18 2 9 19 78 36 152 28 117 72
285 86 329 9 28 22 -5 53 -134z"/>
<path d="M6060 4485 l0 -615 120 0 120 0 0 255 0 255 98 0 99 0 60 -142 c34
-79 83 -194 109 -255 l49 -113 127 0 128 0 -14 33 c-19 44 -183 421 -208 477
l-19 45 22 15 c80 52 117 91 149 156 30 60 34 79 35 144 0 68 -4 84 -38 152
-56 114 -142 178 -264 198 -32 6 -174 10 -315 10 l-258 0 0 -615z m560 379
c45 -26 65 -66 64 -130 0 -110 -63 -147 -254 -148 l-125 -1 -3 153 -3 154 143
-4 c122 -2 148 -6 178 -24z"/>
<path d="M7140 4486 l0 -616 230 0 c254 0 303 7 405 55 120 58 204 159 257
312 29 83 31 97 32 243 0 133 -3 165 -22 225 -50 160 -133 261 -267 325 -114
54 -152 61 -407 67 l-228 6 0 -617z m480 385 c139 -53 199 -164 200 -364 0
-176 -46 -311 -129 -374 -55 -43 -97 -53 -213 -53 l-98 0 0 405 0 405 95 0
c69 0 108 -5 145 -19z"/>
<path d="M6546 3595 c-32 -13 -70 -34 -85 -46 -14 -13 -157 -153 -317 -312
l-291 -289 -119 127 c-121 129 -227 261 -308 385 -68 103 -135 140 -192 107
-11 -7 -98 -70 -192 -141 l-172 -128 121 -130 c113 -119 392 -390 466 -452
l31 -26 114 104 c113 105 113 105 133 85 20 -20 20 -20 -50 -87 -38 -37 -117
-110 -174 -163 l-103 -95 16 -32 c18 -34 80 -72 119 -72 18 0 68 48 213 206
104 113 200 219 214 236 l26 29 46 -40 c25 -23 51 -41 57 -41 5 0 41 37 79 83
215 257 470 673 435 708 -5 5 -34 -3 -67 -16z m-1226 -90 c7 -8 10 -25 6 -40
-8 -31 -50 -35 -66 -5 -23 42 30 81 60 45z"/>
<path d="M3319 3446 c-40 -14 -85 -43 -111 -73 -17 -19 -17 -21 18 -61 40 -47
53 -51 79 -22 30 33 85 45 128 27 43 -19 55 -51 38 -107 -10 -35 -99 -163
-237 -346 -51 -66 -67 -104 -44 -104 6 0 102 0 215 0 113 0 210 0 215 0 7 0
10 22 8 58 l-3 57 -92 3 c-57 2 -93 7 -93 13 0 6 35 60 77 119 90 126 112 175
112 248 1 91 -50 163 -133 187 -60 18 -129 19 -177 1z"/>
<path d="M4040 3451 c-122 -40 -178 -133 -187 -312 -10 -177 32 -293 129 -356
37 -25 50 -28 127 -28 79 0 90 2 131 30 81 55 117 136 127 282 9 127 -25 262
-80 321 -51 55 -176 87 -247 63z m129 -166 c40 -52 54 -208 26 -303 -25 -83
-89 -117 -132 -69 -36 39 -46 69 -51 158 -5 97 9 175 40 214 28 35 88 35 117
0z"/>
<path d="M7236 3445 c-45 -16 -110 -66 -114 -88 -4 -18 54 -87 72 -87 7 0 21
9 31 20 42 46 140 46 165 0 28 -53 10 -93 -135 -291 -156 -213 -160 -218 -149
-228 5 -6 106 -11 224 -12 l215 -2 3 62 3 61 -96 0 c-64 0 -95 4 -95 11 0 7
33 57 72 112 100 138 118 177 118 249 0 69 -16 113 -56 150 -58 54 -173 73
-258 43z"/>
<path d="M7944 3444 c-23 -8 -59 -30 -80 -49 -38 -32 -39 -34 -24 -61 8 -15
27 -36 42 -47 l26 -19 37 27 c61 48 143 37 166 -22 17 -44 -18 -104 -208 -361
-45 -61 -83 -121 -83 -132 0 -19 7 -20 220 -20 l220 0 0 60 0 60 -95 0 c-52 0
-95 4 -95 9 0 5 34 57 76 116 97 137 114 173 114 254 0 81 -29 136 -91 170
-54 31 -164 38 -225 15z"/>
<path d="M5926 2785 l-48 -55 29 -34 c106 -128 240 -264 261 -265 55 -2 137
60 130 98 -2 9 -39 49 -83 90 -44 41 -109 102 -145 135 -103 97 -91 94 -144
31z"/>
<path d="M4880 1055 l0 -285 50 0 50 0 2 181 3 182 169 -187 c154 -168 196
-206 196 -176 0 6 0 127 0 270 0 143 0 267 0 275 0 11 -12 15 -45 15 l-45 0 0
-170 c0 -93 -4 -170 -9 -170 -5 0 -81 79 -171 175 -100 108 -169 175 -181 175
-18 0 -19 -12 -19 -285z"/>
<path d="M5708 1253 c-137 -292 -215 -469 -211 -475 2 -5 24 -8 49 -8 45 0 45
0 66 50 l21 50 126 0 126 0 22 -50 22 -50 50 0 c28 0 51 3 51 6 0 3 -36 83
-79 177 -43 95 -98 215 -121 267 -45 101 -57 120 -72 120 -5 0 -28 -39 -50
-87z m92 -195 c18 -40 35 -79 37 -85 4 -10 -15 -13 -76 -13 -45 0 -81 2 -81 5
0 2 12 30 26 62 14 32 30 68 35 81 5 12 13 22 17 22 5 0 24 -33 42 -72z"/>
<path d="M7015 1330 c-40 -14 -58 -29 -84 -70 -56 -92 -6 -187 130 -248 95
-43 125 -96 79 -142 -27 -27 -77 -25 -134 5 -26 14 -51 25 -56 25 -14 0 -42
-60 -36 -76 3 -8 29 -26 58 -39 100 -47 210 -28 272 45 22 26 26 41 26 90 0
52 -4 64 -32 95 -18 21 -68 55 -119 81 -49 24 -93 53 -99 63 -41 77 45 117
145 69 l46 -22 24 29 c13 17 23 35 22 40 -2 6 -24 21 -50 33 -52 27 -145 37
-192 22z"/>
<path d="M4050 1050 l0 -280 50 0 50 0 0 110 0 109 108 3 107 3 3 42 3 42
-108 3 -108 3 -3 77 -3 77 128 3 128 3 3 43 3 42 -180 0 -181 0 0 -280z"/>
<path d="M4570 1049 l0 -280 48 3 47 3 3 278 2 277 -50 0 -50 0 0 -281z"/>
<path d="M6160 1050 l0 -280 160 0 160 0 0 45 0 44 -107 3 -108 3 -3 233 -2
232 -50 0 -50 0 0 -280z"/>
<path d="M6632 1053 l3 -278 48 -3 47 -3 0 280 0 281 -50 0 -50 0 2 -277z"/>
<path d="M7380 1285 l0 -45 70 0 70 0 0 -236 0 -235 48 3 47 3 3 232 2 232 68
3 67 3 3 43 3 42 -190 0 -191 0 0 -45z"/>
</g>
</svg>
